<svg width="32" height="15" viewBox="0 0 32 15" fill="none" xmlns="http://www.w3.org/2000/svg">
<path d="M31 6.5C31.5523 6.5 32 6.94772 32 7.5C32 8.05228 31.5523 8.5 31 8.5V6.5ZM0.292892 8.20711C-0.0976315 7.81658 -0.0976315 7.18342 0.292892 6.79289L6.65685 0.428932C7.04738 0.0384078 7.68054 0.0384078 8.07107 0.428932C8.46159 0.819457 8.46159 1.45262 8.07107 1.84315L2.41421 7.5L8.07107 13.1569C8.46159 13.5474 8.46159 14.1805 8.07107 14.5711C7.68054 14.9616 7.04738 14.9616 6.65685 14.5711L0.292892 8.20711ZM31 8.5L1 8.5V6.5L31 6.5V8.5Z" fill="#1D2534" fill-opacity="0.3"/>
</svg>
