<svg width="38" height="37" viewBox="0 0 38 37" fill="none" xmlns="http://www.w3.org/2000/svg">
<path d="M17.3334 22.7015V18.3681C17.3334 17.2189 16.8768 16.1167 16.0642 15.304C15.2515 14.4914 14.1493 14.0348 13 14.0348C11.8508 14.0348 10.7486 14.4914 9.93591 15.304C9.12325 16.1167 8.66671 17.2189 8.66671 18.3681V22.7015M5.41671 20.5348H20.5834L21.6667 33.5348H4.33337L5.41671 20.5348Z" stroke="#1D2534" stroke-linecap="round" stroke-linejoin="round"/>
<circle cx="26" cy="12.7848" r="11.5" fill="white" stroke="#1D2534"/>
<path d="M22.228 10.4488H19.68V9.8608C20.0533 9.83281 20.3893 9.79547 20.688 9.74881C20.996 9.70214 21.262 9.61347 21.486 9.4828C21.7193 9.35214 21.9107 9.16547 22.06 8.92281C22.2187 8.6708 22.3353 8.3348 22.41 7.9148H23.124V17.7848H22.228V10.4488ZM32.1073 12.9268C32.1073 12.3948 32.0746 11.8768 32.0093 11.3728C31.9533 10.8595 31.8366 10.4021 31.6593 10.0008C31.482 9.59947 31.23 9.27747 30.9033 9.03481C30.586 8.79214 30.166 8.6708 29.6433 8.6708C29.1486 8.6708 28.7426 8.79681 28.4253 9.04881C28.1173 9.29147 27.8746 9.61814 27.6973 10.0288C27.52 10.4395 27.394 10.9061 27.3193 11.4288C27.254 11.9515 27.2213 12.4835 27.2213 13.0248C27.2213 13.6595 27.2586 14.2381 27.3333 14.7608C27.4173 15.2741 27.5526 15.7128 27.7393 16.0768C27.926 16.4408 28.1733 16.7255 28.4813 16.9308C28.7986 17.1268 29.1953 17.2248 29.6713 17.2248C30.2033 17.2248 30.628 17.0941 30.9453 16.8328C31.272 16.5715 31.5193 16.2355 31.6873 15.8248C31.8553 15.4141 31.9673 14.9521 32.0233 14.4388C32.0793 13.9255 32.1073 13.4215 32.1073 12.9268ZM29.6713 7.9148C30.1566 7.9148 30.5766 7.98947 30.9313 8.13881C31.286 8.27881 31.5846 8.4748 31.8273 8.72681C32.0793 8.97881 32.28 9.27281 32.4293 9.6088C32.588 9.9448 32.7093 10.3041 32.7933 10.6868C32.8773 11.0601 32.9333 11.4475 32.9613 11.8488C32.9893 12.2501 33.0033 12.6421 33.0033 13.0248C33.0033 13.6781 32.9566 14.3035 32.8633 14.9008C32.77 15.4981 32.5973 16.0255 32.3453 16.4828C32.1026 16.9401 31.7666 17.3041 31.3373 17.5748C30.908 17.8455 30.3526 17.9808 29.6713 17.9808C28.99 17.9808 28.43 17.8455 27.9913 17.5748C27.562 17.3041 27.2213 16.9401 26.9693 16.4828C26.7266 16.0161 26.5586 15.4795 26.4653 14.8728C26.372 14.2568 26.3253 13.6081 26.3253 12.9268C26.3253 12.3015 26.3673 11.6901 26.4513 11.0928C26.5353 10.4955 26.694 9.96347 26.9273 9.49681C27.17 9.02081 27.5106 8.63814 27.9493 8.3488C28.388 8.05947 28.962 7.9148 29.6713 7.9148Z" fill="#1D2534"/>
</svg>
