<svg width="26" height="27" viewBox="0 0 26 27" fill="none" xmlns="http://www.w3.org/2000/svg">
<path d="M22 23.7848V24.2848H22.5V23.7848H22ZM11.5 23.7848H11V24.2848H11.5V23.7848ZM20 15.7687C20.2761 15.7687 20.5 15.5448 20.5 15.2687C20.5 14.9925 20.2761 14.7687 20 14.7687V15.7687ZM15.1464 14.9151C14.9512 15.1104 14.9512 15.427 15.1464 15.6222L18.3284 18.8042C18.5237 18.9995 18.8403 18.9995 19.0355 18.8042C19.2308 18.6089 19.2308 18.2924 19.0355 18.0971L16.2071 15.2687L19.0355 12.4402C19.2308 12.245 19.2308 11.9284 19.0355 11.7331C18.8403 11.5379 18.5237 11.5379 18.3284 11.7331L15.1464 14.9151ZM19.3529 5.78481L19.7279 5.45399L19.5786 5.28481H19.3529V5.78481ZM22 8.78481H22.5V8.59575L22.3749 8.45399L22 8.78481ZM19.3529 8.78481H18.8529V9.28481H19.3529V8.78481ZM11.5 18.7848V18.2848H11V18.7848H11.5ZM14 18.7848V19.2848H14.5V18.7848H14ZM14 5.78481V5.28481H13.5V5.78481H14ZM22 23.2848H11.5V24.2848H22V23.2848ZM21.5 8.78481V23.7848H22.5V8.78481H21.5ZM18.978 6.11562L21.6251 9.11562L22.3749 8.45399L19.7279 5.45399L18.978 6.11562ZM19.3529 9.28481H22V8.28481H19.3529V9.28481ZM18.8529 5.78481V8.78481H19.8529V5.78481H18.8529ZM12 23.7848V18.7848H11V23.7848H12ZM11.5 19.2848H14V18.2848H11.5V19.2848ZM14.5 18.7848V5.78481H13.5V18.7848H14.5ZM14 6.28481H19.3529V5.28481H14V6.28481ZM20 14.7687H17.0637V15.7687H20V14.7687ZM17.0637 14.7687H15.5V15.7687H17.0637V14.7687Z" fill="#1D2534"/>
<path d="M4 0.784805V0.284805H3.5V0.784805H4ZM14 18.7848V19.2848H14.5V18.7848H14ZM4 18.7848H3.5V19.2848H4V18.7848ZM5.5 9.38158C5.22386 9.38158 5 9.60544 5 9.88158C5 10.1577 5.22386 10.3816 5.5 10.3816V9.38158ZM10.8241 10.2351C11.0194 10.0399 11.0194 9.72329 10.8241 9.52803L7.64216 6.34605C7.4469 6.15078 7.13032 6.15078 6.93505 6.34605C6.73979 6.54131 6.73979 6.85789 6.93505 7.05315L9.76348 9.88158L6.93505 12.71C6.73979 12.9053 6.73979 13.2219 6.93505 13.4171C7.13032 13.6124 7.4469 13.6124 7.64216 13.4171L10.8241 10.2351ZM11.3529 0.784805L11.7279 0.453995L11.5786 0.284805H11.3529V0.784805ZM14 3.78481H14.5V3.59575L14.3749 3.45399L14 3.78481ZM11.3529 3.78481H10.8529V4.28481H11.3529V3.78481ZM14 18.2848H4V19.2848H14V18.2848ZM4.5 18.7848V0.784805H3.5V18.7848H4.5ZM4 1.28481H11.3529V0.284805H4V1.28481ZM13.5 3.78481V18.7848H14.5V3.78481H13.5ZM10.978 1.11562L13.6251 4.11562L14.3749 3.45399L11.7279 0.453995L10.978 1.11562ZM11.3529 4.28481H14V3.28481H11.3529V4.28481ZM10.8529 0.784805V3.78481H11.8529V0.784805H10.8529ZM5.5 10.3816H10.4706V9.38158H5.5V10.3816Z" fill="#1D2534"/>
</svg>
