<svg width="65" height="66" viewBox="0 0 65 66" fill="none" xmlns="http://www.w3.org/2000/svg">
<path d="M52.2191 20.6167V21.7774C52.2191 30.8117 55.6685 33.1945 62.9307 36.8667V50.4084H56.2359M52.2191 20.6167H57.5749V19.2625C57.5749 19.2625 53.558 16.5542 52.2191 12.4917H1.33893V50.4084H6.69473M52.2191 20.6167H38.8296V31.45H54.9479M56.2359 50.4084C56.2359 54.1478 53.2386 57.1792 49.5412 57.1792C45.8438 57.1792 42.8464 54.1478 42.8464 50.4084M56.2359 50.4084C56.2359 46.669 53.2386 43.6375 49.5412 43.6375C45.8438 43.6375 42.8464 46.669 42.8464 50.4084M6.69473 50.4084C6.69473 54.1478 9.69208 57.1792 13.3895 57.1792C17.0869 57.1792 20.0842 54.1478 20.0842 50.4084M6.69473 50.4084C6.69473 46.669 9.69208 43.6375 13.3895 43.6375C17.0869 43.6375 20.0842 46.669 20.0842 50.4084M42.8464 50.4084H20.0842M30.7959 31.45V20.6167H9.37264V31.45H30.7959Z" stroke="#4057DA" stroke-width="2"/>
</svg>
