<svg width="40" height="37" viewBox="0 0 40 37" fill="none" xmlns="http://www.w3.org/2000/svg">
<path d="M4.67788 17.6293C4.22518 18.082 3.86609 18.6194 3.62109 19.2109C3.3761 19.8023 3.25 20.4363 3.25 21.0765C3.25 21.7167 3.3761 22.3506 3.62109 22.9421C3.86609 23.5335 4.22518 24.071 4.67788 24.5236L13 32.8458L21.3222 24.5236C22.2365 23.6094 22.7501 22.3694 22.7501 21.0765C22.7501 19.7835 22.2365 18.5436 21.3222 17.6293C20.408 16.7151 19.168 16.2014 17.875 16.2014C16.5821 16.2014 15.3421 16.7151 14.4279 17.6293L13 19.0571L11.5722 17.6293C11.1195 17.1766 10.5821 16.8175 9.99064 16.5725C9.39917 16.3275 8.76524 16.2014 8.12504 16.2014C7.48484 16.2014 6.85091 16.3275 6.25945 16.5725C5.66798 16.8175 5.13056 17.1766 4.67788 17.6293Z" stroke="#1D2534" stroke-linecap="round" stroke-linejoin="round"/>
<circle cx="28" cy="12.7848" r="11.5" fill="white" stroke="#1D2534"/>
<path d="M28.228 10.4488H25.68V9.8608C26.0533 9.83281 26.3893 9.79547 26.688 9.74881C26.996 9.70214 27.262 9.61347 27.486 9.4828C27.7193 9.35214 27.9107 9.16547 28.06 8.92281C28.2187 8.6708 28.3353 8.3348 28.41 7.9148H29.124V17.7848H28.228V10.4488Z" fill="#1D2534"/>
</svg>
