<svg width="208" height="75" viewBox="0 0 208 75" fill="none" xmlns="http://www.w3.org/2000/svg">
<path d="M61.7493 67.8691V55.2319L56.4862 67.8691H55.6979L50.458 55.2319V67.8691H48.5336V52.6816H51.2926L56.092 64.2487L60.9146 52.6816H63.6737V67.8691H61.7493Z" fill="#FBFBFB"/>
<path d="M67.2222 60.75C67.2222 56.1428 70.2639 52.6816 74.7922 52.6816C79.2977 52.6816 82.3623 56.1428 82.3623 60.75C82.3623 65.3571 79.2977 68.8183 74.7922 68.8183C70.2639 68.8183 67.2222 65.3571 67.2222 60.75ZM80.3955 60.75C80.3955 57.1017 78.1999 54.4122 74.7922 54.4122C71.3617 54.4122 69.189 57.1017 69.189 60.75C69.189 64.3749 71.3617 67.0877 74.7922 67.0877C78.1999 67.0877 80.3955 64.3749 80.3955 60.75Z" fill="#FBFBFB"/>
<path d="M85.9108 67.8691V52.6816H92.9792C95.7399 52.6816 97.4296 54.2755 97.4296 56.5525C97.4296 58.4652 96.0969 59.7403 94.6451 60.0363C96.3349 60.2868 97.739 61.949 97.739 63.7705C97.739 66.2069 96.0493 67.8691 93.1458 67.8691H85.9108ZM87.8861 59.2621H92.646C94.4309 59.2621 95.3829 58.2147 95.3829 56.8257C95.3829 55.4596 94.4309 54.3666 92.646 54.3666H87.8861V59.2621ZM87.8861 66.1841H92.7412C94.5975 66.1841 95.6923 65.1823 95.6923 63.5656C95.6923 62.1767 94.6927 60.9471 92.7412 60.9471H87.8861V66.1841Z" fill="#FBFBFB"/>
<path d="M101.288 67.8691V52.6816H103.417V67.8691H101.288Z" fill="#FBFBFB"/>
<path d="M106.965 67.8691V52.6816H109.013V66.1841H116.664V67.8691H106.965Z" fill="#FBFBFB"/>
<path d="M120.213 67.8691V52.6816H131.095V54.3666H122.28V59.2621H130.92V60.9471H122.28V66.1841H131.095V67.8691H120.213Z" fill="#FBFBFB"/>
<path d="M0 45.5624V10.2041H16.5242C24.2038 10.2041 28.3878 15.3992 28.3878 21.6015C28.3878 27.7507 24.1508 32.8928 16.5242 32.8928H7.52064V45.5624H0ZM20.7082 21.5485C20.7082 18.6328 18.4838 16.6714 15.5179 16.6714H7.52064V26.4255H15.5179C18.4838 26.4255 20.7082 24.5171 20.7082 21.5485Z" fill="#FBFBFB"/>
<path d="M50.7374 45.5624L43.7934 32.8928H38.2806V45.5624H30.7534V10.2041H47.2919C54.66 10.2041 59.1657 15.0281 59.1657 21.6015C59.1657 27.8568 55.2431 31.1965 51.4266 32.0976L59.3778 45.5624H50.7374ZM51.4796 21.5485C51.4796 18.5798 49.2002 16.6714 46.1788 16.6714H38.2806V26.4255H46.1788C49.2002 26.4255 51.4796 24.5171 51.4796 21.5485Z" fill="#FBFBFB"/>
<path d="M61.7434 45.5624V10.2041H68.8404V45.5624H61.7434Z" fill="#FBFBFB"/>
<path d="M71.206 45.5624V10.2041H85.0207C95.9989 10.2041 103.615 17.2546 103.615 27.9098C103.615 38.565 95.9989 45.5624 85.0207 45.5624H71.206ZM78.6649 38.9361H85.0207C91.9543 38.9361 95.9989 33.9 95.9989 27.9098C95.9989 21.6545 92.2169 16.8305 85.0207 16.8305H78.6649V38.9361Z" fill="#FBFBFB"/>
<path d="M105.981 45.5624V10.2041H130.82V16.6714H113.454V24.358H130.452V30.8254H113.454V39.0421H130.82V45.5624H105.981Z" fill="#FBFBFB"/>
<path d="M150.904 64.0047C148.942 62.1226 146.696 58.7723 146.817 54.2352C146.897 51.2565 148.202 48.6402 149.832 46.5649C151.456 44.4981 153.376 43.0017 154.639 42.26C156.413 41.4143 161.686 38.9193 168.755 35.6241L168.767 35.6186L168.778 35.6125C170.909 34.4812 172.184 33.7805 172.913 33.3635C173.275 33.1561 173.51 33.0147 173.65 32.9236C173.712 32.883 173.781 32.836 173.832 32.7896C173.846 32.7769 173.871 32.7531 173.897 32.7208C173.898 32.7204 173.898 32.7199 173.899 32.7193C173.912 32.7027 173.993 32.6039 174.009 32.4525C174.02 32.3512 174.001 32.2161 173.908 32.0947C173.823 31.9827 173.715 31.9365 173.651 31.9177C173.543 31.8855 173.451 31.8989 173.431 31.9018L173.43 31.902L173.356 31.9126L173.288 31.9441C172.587 32.2727 170.805 32.6724 169.339 31.7165C167.92 30.7912 167.91 29.2177 168.088 28.5478L168.091 28.535L168.094 28.522C168.151 28.2512 168.401 27.5607 168.885 27.1104C168.981 27.0205 169.061 26.9429 169.131 26.8754C169.371 26.6432 169.486 26.532 169.713 26.4576C170.012 26.3596 170.54 26.3347 171.74 26.5558C174.168 27.0032 176.661 28.698 177.98 29.7978L178.757 29.21C178.333 28.2591 177.532 26.8486 176.494 25.6876C176.065 25.2086 175.577 24.751 175.041 24.3888C176.022 24.308 177.071 24.2232 177.923 24.155L177.937 24.1538L177.951 24.1519C179.143 23.9875 182.287 24.5134 184.438 28.3498L184.521 28.4964L184.675 28.5636C184.963 28.6893 185.412 28.8302 185.882 28.9775C186.108 29.0483 186.338 29.1206 186.558 29.1934C187.248 29.4223 187.855 29.6618 188.203 29.9126C188.203 29.9522 188.2 30.0138 188.188 30.1053C188.166 30.2646 188.131 30.4325 188.088 30.6354C188.056 30.7855 188.02 30.9547 187.983 31.1537L187.924 31.4683L188.185 31.6534L195.846 37.0865L194.815 37.9433L193.72 37.17L193.59 37.0784H193.431H190.144H188.344L189.886 38.0068L193.249 40.0305L192.945 41.9036C192.944 41.9044 192.943 41.9053 192.942 41.9063C192.909 41.9393 192.831 41.9995 192.681 42.0548C192.379 42.1658 191.804 42.249 190.812 42.0594C189.72 41.8507 189.123 41.7613 188.547 41.7759C188.113 41.7869 187.691 41.8587 187.092 41.9607C186.916 41.9905 186.726 42.0228 186.516 42.057L186.476 42.0635L186.438 42.0763C186.317 42.1167 186.232 42.1949 186.206 42.2189L186.205 42.2197C186.162 42.2592 186.121 42.304 186.085 42.3481C186.012 42.4364 185.934 42.5492 185.87 42.6718C185.808 42.7886 185.741 42.9488 185.724 43.125C185.706 43.3094 185.741 43.577 185.974 43.7715C186.083 43.8622 186.216 43.9013 186.27 43.917C186.349 43.94 186.44 43.9597 186.536 43.977C186.729 44.0118 186.976 44.0438 187.253 44.0725C187.81 44.1303 188.522 44.1783 189.236 44.2081C189.949 44.2378 190.672 44.2496 191.251 44.2337C191.474 44.2275 191.681 44.2171 191.861 44.2013C191.814 44.3572 191.751 44.5338 191.673 44.7168C191.524 45.0673 191.337 45.4024 191.139 45.6374C190.925 45.8913 190.787 45.9262 190.741 45.924C190.71 45.9226 190.675 45.9211 190.638 45.9195C189.988 45.891 188.485 45.8251 187.052 45.4613C186.295 45.269 185.589 45.0009 185.049 44.6337C184.515 44.2703 184.17 43.8309 184.06 43.2884C183.775 41.8826 183.719 41.2854 183.715 40.9744C183.714 40.8543 183.72 40.7785 183.727 40.693C183.729 40.6695 183.731 40.6453 183.733 40.6192C183.742 40.4866 183.744 40.3489 183.714 40.1475C183.704 40.0819 183.679 39.9468 183.589 39.8253C183.537 39.7549 183.45 39.6716 183.318 39.6288C183.184 39.5853 183.061 39.602 182.971 39.6336C182.819 39.6867 182.724 39.7938 182.687 39.8365C182.638 39.8944 182.594 39.9594 182.558 40.0188C182.418 40.2476 182.249 40.6182 182.087 40.975C182.075 41.0017 182.063 41.0286 182.051 41.0554C181.893 41.4043 181.733 41.7571 181.583 42.0445C181.502 42.1994 181.43 42.3216 181.37 42.4073C181.341 42.4485 181.322 42.4714 181.312 42.4823C181.266 42.5009 181.205 42.5158 181.091 42.5441C181.047 42.5549 180.995 42.5677 180.933 42.5835C180.705 42.6412 180.417 42.725 180.074 42.8934C179.612 43.1204 179.078 43.488 178.456 44.1162C178.466 44.0114 178.476 43.9038 178.485 43.7944C178.532 43.2109 178.554 42.5403 178.482 41.9011C178.417 41.3176 178.268 40.7145 177.95 40.2254C177.832 39.0837 177.813 38.47 177.859 37.9638C177.897 37.5442 177.979 37.1939 178.104 36.6541C178.137 36.5084 178.174 36.3489 178.214 36.1704C178.231 36.0969 178.251 36.007 178.256 35.9385C178.258 35.9223 178.262 35.8746 178.254 35.8172C178.251 35.7908 178.241 35.726 178.204 35.6527C178.166 35.576 178.067 35.4348 177.87 35.3882C177.687 35.345 177.547 35.4154 177.494 35.4479C177.435 35.4836 177.397 35.5233 177.38 35.5412C177.345 35.5793 177.323 35.6157 177.314 35.6296C177.28 35.6857 177.243 35.7654 177.215 35.8271C177.187 35.8898 177.152 35.9691 177.112 36.0601L177.091 36.1068C176.895 36.5532 176.559 37.3116 176.065 38.249C175.084 40.1145 173.491 42.6718 171.174 44.8596C168.862 46.0497 165.457 48.0244 162.488 50.2567C160.991 51.3829 159.593 52.5835 158.501 53.7908C158.09 54.2455 157.717 54.7072 157.396 55.172C158.034 51.0432 161.161 44.1953 170.681 38.4247L170.24 37.5314C165.53 39.3705 158.946 42.984 154.533 47.8691C152.323 50.3153 150.636 53.105 150.023 56.1732C149.53 58.6455 149.741 61.271 150.904 64.0047ZM192.963 41.8822C192.963 41.8822 192.962 41.8842 192.959 41.8881C192.961 41.8841 192.962 41.8822 192.963 41.8822ZM176.706 49.6642C181.355 47.8787 184.586 48.1396 185.942 48.5434C185.686 49.0395 185.235 49.5834 184.696 50.1081C184.023 50.762 183.278 51.3243 182.796 51.6437L172.656 56.8597C166.906 59.4814 163.612 62.5599 161.763 65.4818C160.625 67.2793 160.042 69.0031 159.764 70.5008C158.959 67.4434 158.977 64.8779 159.541 62.7111C160.243 60.0135 161.804 57.8828 163.779 56.1624C167.208 53.175 171.813 51.4761 175.189 50.2307C175.73 50.0314 176.238 49.8437 176.706 49.6642Z" fill="#FBFBFB" stroke="#FBFBFB"/>
<path d="M168.723 29.8657L168.726 29.9111L168.737 29.9553C168.911 30.6411 169.506 31.4301 170.643 31.7704C171.769 32.1073 173.371 31.991 175.579 31.0232L175.379 30.0652C174.043 30.0652 173.186 29.7915 172.772 29.5956C172.935 28.7674 172.732 28.126 172.297 27.6824C171.835 27.2112 171.194 27.0503 170.758 27.0302L170.758 27.0301L170.751 27.0299C170.312 27.0161 169.936 27.1358 169.633 27.3579C169.336 27.575 169.136 27.869 169.002 28.1653C168.74 28.7474 168.694 29.4229 168.723 29.8657Z" fill="#FBFBFB" stroke="#FBFBFB"/>
<path d="M152.006 34.2043C158.116 32.0879 163.484 31.5874 165.05 31.0117C165.363 31.3781 165.317 33.8594 152.006 38.7577C143.598 41.8518 141.801 53.8167 140.271 52.8223C139.059 43.7075 142.725 37.4189 152.006 34.2043Z" fill="#FBFBFB" stroke="#FBFBFB"/>
<path d="M170.369 70.51C169.079 71.4447 168.057 72.3203 167.287 73.0964C167.654 71.9312 168.196 70.7262 168.797 69.5922C169.741 67.8101 170.808 66.2484 171.495 65.3625L171.53 65.3179L171.554 65.2668C171.575 65.2217 171.683 65.0597 171.979 64.7651C172.26 64.4843 172.679 64.1139 173.273 63.6529C174.458 62.7311 176.321 61.4612 179.125 59.836C184.508 56.716 187.583 52.5304 188.647 50.4545L190.387 50.8545C190.445 54.5305 188.893 57.6176 186.83 60.0197C184.692 62.5086 182.029 64.2326 180.133 65.0695C175.905 66.936 172.691 68.8283 170.369 70.51Z" fill="#FBFBFB" stroke="#FBFBFB"/>
<path d="M188.582 69.9334C185.792 71.0405 182.855 71.6551 180.333 71.9415C186.659 69.3496 190.344 65.2396 192.339 60.9433C194.396 56.5137 194.644 51.915 194.185 48.6292C199.194 52.5151 199.043 58.3539 198.277 60.9244C196.714 65.4148 192.86 68.236 188.582 69.9334ZM203.605 56.642C203.639 53.0067 202.057 46.9759 195.577 44.1649C196.046 43.4834 196.681 42.3777 197.164 41.011C199.266 41.3772 203.326 43.0136 205.346 47.2159C206.396 49.3996 206.15 51.7091 205.419 53.6161C205.053 54.5679 204.571 55.4064 204.084 56.0593C203.92 56.2786 203.759 56.4731 203.605 56.642Z" fill="#FBFBFB" stroke="#FBFBFB"/>
<path d="M180.03 31.1215L180.093 32.111C181.249 32.1882 182.831 32.7471 184.381 33.4516C185.915 34.149 187.357 34.96 188.211 35.491L188.975 35.9662V35.0664C188.975 34.8844 188.907 34.7197 188.851 34.6053C188.789 34.48 188.707 34.3518 188.62 34.2289C188.447 33.9835 188.22 33.7094 188.004 33.4506C187.986 33.4286 187.967 33.4068 187.949 33.385C187.747 33.1426 187.555 32.913 187.4 32.7062C187.217 32.4604 187.145 32.3225 187.134 32.2762C187.075 32.0393 187.086 31.8756 187.108 31.752C187.118 31.6943 187.131 31.646 187.146 31.5867C187.149 31.5739 187.152 31.5606 187.156 31.5465L187.156 31.5433C187.172 31.48 187.201 31.3661 187.201 31.2457C187.201 31.169 187.192 31.0284 187.107 30.8933C186.995 30.7159 186.806 30.6301 186.622 30.6375C186.48 30.6432 186.374 30.7016 186.327 30.7311C186.27 30.7664 186.224 30.8064 186.19 30.8404L185.968 31.0631C185.691 30.9092 185.378 30.8053 185.103 30.7333C184.81 30.6563 184.515 30.6044 184.265 30.5723C184.229 30.4748 184.186 30.3755 184.136 30.2865C184.085 30.1966 183.981 30.0319 183.801 29.9356C183.696 29.8795 183.557 29.8425 183.4 29.8713C183.249 29.8992 183.136 29.9786 183.06 30.0553L183.052 30.0624L183.046 30.0697C182.988 30.1329 182.847 30.232 182.599 30.3499C182.363 30.4621 182.073 30.5716 181.76 30.6735C181.135 30.877 180.459 31.0372 180.03 31.1215ZM186.898 31.5464C186.898 31.5464 186.898 31.5465 186.898 31.5466L186.898 31.5464L186.69 31.339L186.898 31.5464Z" fill="#FBFBFB" stroke="#FBFBFB"/>
<path d="M152.749 25.557C152.227 25.7663 149.587 24.8484 148.386 24.3943C148.11 24.2898 147.882 24.1151 147.951 24.0104C147.934 23.7662 148.076 23.2463 148.786 23.1207C149.673 22.9637 152.645 24.2485 153.01 24.5102C153.299 24.7175 153.237 25.0973 153.169 25.2665C153.168 25.2682 153.167 25.2699 153.167 25.2716C153.136 25.343 153.027 25.4453 152.749 25.557Z" fill="url(#paint0_linear_2053_1634)"/>
<path d="M154.788 21.33C154.266 21.5393 148.786 17.9044 147.484 16.9623C146.651 16.3599 146.475 16.1772 146.545 16.0726C146.527 15.8283 146.67 15.3085 147.379 15.1829C148.266 15.0258 154.684 20.0215 155.049 20.2832C155.338 20.4905 155.276 20.8703 155.208 21.0395C155.207 21.0412 155.206 21.0429 155.206 21.0446C155.175 21.116 155.066 21.2183 154.788 21.33Z" fill="url(#paint1_linear_2053_1634)"/>
<path d="M160.473 14.8401C159.951 15.0495 157.136 11.2575 155.675 9.63504C154.987 8.87077 154.199 8.01256 154.268 7.90788C154.251 7.66364 154.339 6.67272 155.049 6.54711C155.936 6.39009 160.369 13.5317 160.734 13.7934C161.023 14.0006 160.961 14.3805 160.893 14.5497C160.892 14.5514 160.891 14.5531 160.89 14.5548C160.86 14.6261 160.751 14.7285 160.473 14.8401Z" fill="url(#paint2_linear_2053_1634)"/>
<path d="M157.395 17.7299C156.873 17.9393 155.049 16.0726 155.049 16.0726C155.049 16.0726 154.545 15.7934 154.614 15.6888C154.597 15.4445 154.728 14.799 155.449 14.799C156.353 14.799 157.29 16.4215 157.656 16.6832C157.945 16.8904 157.883 17.2702 157.814 17.4395C157.814 17.4412 157.813 17.4429 157.812 17.4446C157.781 17.5159 157.673 17.6182 157.395 17.7299Z" fill="url(#paint3_linear_2053_1634)"/>
<path d="M163.725 12.566C163.204 12.7753 162.458 11.2575 162.458 11.2575C162.458 11.2575 161.953 10.769 162.023 10.6644C162.006 10.4201 162.155 10.2108 162.875 10.2108C163.725 10.2108 163.621 11.2575 163.986 11.5192C164.275 11.7264 164.214 12.1063 164.145 12.2755C164.144 12.2772 164.143 12.2789 164.143 12.2806C164.112 12.352 164.004 12.4543 163.725 12.566Z" fill="url(#paint4_linear_2053_1634)"/>
<path d="M166.838 11.0248C165.638 9.55914 165.275 6.96601 164.438 5.31994C163.972 4.4025 163.654 3.06942 163.723 2.96474C163.706 2.7205 163.984 1.918 164.921 2.28435C165.76 2.61245 167.501 9.47437 167.621 9.90813C167.778 10.4726 167.848 10.4952 167.78 10.6644C167.779 10.6661 167.778 10.6678 167.778 10.6696C167.747 10.7409 167.029 11.2571 166.838 11.0248Z" fill="url(#paint5_linear_2053_1634)"/>
<path d="M174.46 9.42086C173.26 7.95524 174.164 5.27233 173.834 3.45434C173.625 2.30292 173.973 0.837464 174.043 0.732789C174.456 0.0523985 174.719 -0.322926 175.454 0.366416C176.234 1.09914 175.274 8.1124 175.295 8.18828C175.451 8.75279 175.522 8.77535 175.454 8.94458C175.453 8.94626 175.452 8.94798 175.451 8.9497C175.295 9.31091 174.65 9.65318 174.46 9.42086Z" fill="url(#paint6_linear_2053_1634)"/>
<path d="M182.682 10.6872C181.464 10.8429 182.821 6.65722 183.097 6.13897C184.351 3.77865 183.777 4.35556 184.351 2.62841C184.764 1.94802 185.409 1.93907 186.143 2.62841C186.924 3.36114 184.819 6.8717 184.819 6.8717C184.297 8.75586 183.762 9.86823 183.693 10.0374C183.692 10.0391 183.692 10.0409 183.691 10.0426C183.534 10.4038 182.979 10.6492 182.682 10.6872Z" fill="url(#paint7_linear_2053_1634)"/>
<path d="M171.119 10.0541C170.597 10.2634 170.232 9.11198 170.232 9.11198C170.232 9.11198 169.884 7.78609 169.954 7.68141C169.936 7.43717 170.085 7.12314 170.806 7.12314C171.656 7.12314 171.223 8.68804 171.588 8.94973C171.878 9.15698 171.816 9.53683 171.747 9.70605C171.746 9.70773 171.746 9.70943 171.745 9.71115C171.714 9.78249 171.397 9.9424 171.119 10.0541Z" fill="url(#paint8_linear_2053_1634)"/>
<path d="M178.833 10.096C178.311 10.3054 178.52 8.06519 178.52 8.06519C178.52 8.06519 178.503 7.42267 178.572 7.318C178.555 7.07375 178.851 7.01843 179.571 7.01843C180.421 7.01843 180.048 7.87665 180.048 8.32687C180.048 8.94458 179.321 9.63635 179.253 9.80557C179.252 9.80725 179.251 9.80895 179.251 9.81067C179.22 9.882 179.111 9.98435 178.833 10.096Z" fill="url(#paint9_linear_2053_1634)"/>
<path d="M186.145 12.7382C185.623 12.9476 185.936 11.4874 185.936 11.4874C185.936 11.4874 186.493 10.4406 186.563 10.3359C186.771 10.0742 186.98 10.0577 187.295 10.0743C188.144 10.119 187.914 10.9555 187.773 11.3827C187.502 12.1999 186.633 12.2786 186.565 12.4478C186.564 12.4495 186.563 12.4512 186.563 12.4529C186.532 12.5242 186.423 12.6266 186.145 12.7382Z" fill="url(#paint10_linear_2053_1634)"/>
<path d="M189.221 14.4789C188.003 14.6346 190.355 11.9905 190.63 11.4723C191.884 9.11193 192.747 9.42086 194.021 7.32312C194.435 6.64273 195.079 6.63377 195.813 7.32312C196.594 8.05584 193.71 10.6644 193.71 10.6644C192.876 11.8858 192.097 11.6964 190.443 14.1956C190.443 14.1973 190.442 14.199 190.441 14.2007C190.285 14.562 189.519 14.4409 189.221 14.4789Z" fill="url(#paint11_linear_2053_1634)"/>
<path d="M192.56 17.8468C192.038 18.0562 192.351 16.5959 192.351 16.5959C192.351 16.5959 193.084 15.6542 194.188 15.1829C194.702 14.9212 194.858 14.9214 194.921 14.9212C195.771 14.9182 195.679 15.876 195.276 16.0726C194.021 16.6832 193.048 17.3871 192.98 17.5564C192.979 17.5581 192.978 17.5598 192.978 17.5615C192.947 17.6328 192.838 17.7352 192.56 17.8468Z" fill="url(#paint12_linear_2053_1634)"/>
<path d="M195.278 20.9585C193.345 21.2056 196.252 19.0193 196.737 18.6897C199.815 16.5959 199.523 16.7479 201.73 15.6837C203.311 14.9212 203.123 14.7571 203.521 15.6837C204.093 17.0149 201.067 18.1664 201.067 18.1664C199.255 18.878 199.293 19.1608 196.5 20.6752C196.499 20.6769 196.499 20.6786 196.498 20.6803C196.341 21.0415 195.575 20.9205 195.278 20.9585Z" fill="url(#paint13_linear_2053_1634)"/>
<path d="M197.35 25.6158C196.841 26.0924 197.141 24.3649 197.141 24.3649C197.141 24.3649 198.258 23.2432 200.493 23.2136C200.493 23.2136 201.417 23.2138 201.479 23.2136C202.329 23.2105 202.238 24.1684 201.834 24.3649C200.58 24.9755 199.773 25.0277 198.563 25.255C198.562 25.2567 197.768 25.3287 197.767 25.3305C197.624 25.3597 197.569 25.4107 197.35 25.6158Z" fill="url(#paint14_linear_2053_1634)"/>
<path d="M165.033 25.864C159.941 28.753 157.207 29.1961 156.477 29.0566C155.851 25.6023 163.103 10.5814 178.129 13.0412C190.15 15.0091 193.608 24.8521 193.834 29.5276L190.912 30.1557C190.912 29.1089 189.729 27.8702 189.138 27.3817C187.176 26.7955 186.234 26.1257 186.008 25.864C184.255 23.9798 182.773 22.9156 182.251 22.619C178.442 20.9966 171.399 22.2527 165.033 25.864Z" fill="url(#paint15_linear_2053_1634)"/>
<defs>
<linearGradient id="paint0_linear_2053_1634" x1="175.072" y1="0" x2="175.118" y2="66.626" gradientUnits="userSpaceOnUse">
<stop stop-color="white"/>
<stop offset="0.195" stop-color="#4057DA"/>
</linearGradient>
<linearGradient id="paint1_linear_2053_1634" x1="175.072" y1="0" x2="175.118" y2="66.626" gradientUnits="userSpaceOnUse">
<stop stop-color="white"/>
<stop offset="0.195" stop-color="#4057DA"/>
</linearGradient>
<linearGradient id="paint2_linear_2053_1634" x1="175.072" y1="0" x2="175.118" y2="66.626" gradientUnits="userSpaceOnUse">
<stop stop-color="white"/>
<stop offset="0.195" stop-color="#4057DA"/>
</linearGradient>
<linearGradient id="paint3_linear_2053_1634" x1="175.072" y1="0" x2="175.118" y2="66.626" gradientUnits="userSpaceOnUse">
<stop stop-color="white"/>
<stop offset="0.195" stop-color="#4057DA"/>
</linearGradient>
<linearGradient id="paint4_linear_2053_1634" x1="175.072" y1="0" x2="175.118" y2="66.626" gradientUnits="userSpaceOnUse">
<stop stop-color="white"/>
<stop offset="0.195" stop-color="#4057DA"/>
</linearGradient>
<linearGradient id="paint5_linear_2053_1634" x1="175.072" y1="0" x2="175.118" y2="66.626" gradientUnits="userSpaceOnUse">
<stop stop-color="white"/>
<stop offset="0.195" stop-color="#4057DA"/>
</linearGradient>
<linearGradient id="paint6_linear_2053_1634" x1="175.072" y1="0" x2="175.118" y2="66.626" gradientUnits="userSpaceOnUse">
<stop stop-color="white"/>
<stop offset="0.195" stop-color="#4057DA"/>
</linearGradient>
<linearGradient id="paint7_linear_2053_1634" x1="175.072" y1="0" x2="175.118" y2="66.626" gradientUnits="userSpaceOnUse">
<stop stop-color="white"/>
<stop offset="0.195" stop-color="#4057DA"/>
</linearGradient>
<linearGradient id="paint8_linear_2053_1634" x1="175.072" y1="0" x2="175.118" y2="66.626" gradientUnits="userSpaceOnUse">
<stop stop-color="white"/>
<stop offset="0.195" stop-color="#4057DA"/>
</linearGradient>
<linearGradient id="paint9_linear_2053_1634" x1="175.072" y1="0" x2="175.118" y2="66.626" gradientUnits="userSpaceOnUse">
<stop stop-color="white"/>
<stop offset="0.195" stop-color="#4057DA"/>
</linearGradient>
<linearGradient id="paint10_linear_2053_1634" x1="175.072" y1="0" x2="175.118" y2="66.626" gradientUnits="userSpaceOnUse">
<stop stop-color="white"/>
<stop offset="0.195" stop-color="#4057DA"/>
</linearGradient>
<linearGradient id="paint11_linear_2053_1634" x1="175.072" y1="0" x2="175.118" y2="66.626" gradientUnits="userSpaceOnUse">
<stop stop-color="white"/>
<stop offset="0.195" stop-color="#4057DA"/>
</linearGradient>
<linearGradient id="paint12_linear_2053_1634" x1="175.072" y1="0" x2="175.118" y2="66.626" gradientUnits="userSpaceOnUse">
<stop stop-color="white"/>
<stop offset="0.195" stop-color="#4057DA"/>
</linearGradient>
<linearGradient id="paint13_linear_2053_1634" x1="175.072" y1="0" x2="175.118" y2="66.626" gradientUnits="userSpaceOnUse">
<stop stop-color="white"/>
<stop offset="0.195" stop-color="#4057DA"/>
</linearGradient>
<linearGradient id="paint14_linear_2053_1634" x1="175.072" y1="0" x2="175.118" y2="66.626" gradientUnits="userSpaceOnUse">
<stop stop-color="white"/>
<stop offset="0.195" stop-color="#4057DA"/>
</linearGradient>
<linearGradient id="paint15_linear_2053_1634" x1="175.195" y1="0.00426139" x2="175.242" y2="66.6302" gradientUnits="userSpaceOnUse">
<stop stop-color="white"/>
<stop offset="0.36" stop-color="#4057DA"/>
</linearGradient>
</defs>
</svg>
