<svg width="210" height="90" viewBox="0 0 210 90" fill="none" xmlns="http://www.w3.org/2000/svg">
<path d="M62.343 68.3845V55.6512L57.0293 68.3845H56.2334L50.9431 55.6512V68.3845H49.0002V53.0816H51.7858L56.6314 64.7366L61.5003 53.0816H64.2859V68.3845H62.343Z" fill="#1D2534"/>
<path d="M67.8685 61.2113C67.8685 56.5691 70.9395 53.0816 75.5114 53.0816C80.0602 53.0816 83.1543 56.5691 83.1543 61.2113C83.1543 65.8534 80.0602 69.3409 75.5114 69.3409C70.9395 69.3409 67.8685 65.8534 67.8685 61.2113ZM81.1685 61.2113C81.1685 57.5353 78.9518 54.8254 75.5114 54.8254C72.0479 54.8254 69.8543 57.5353 69.8543 61.2113C69.8543 64.8637 72.0479 67.5971 75.5114 67.5971C78.9518 67.5971 81.1685 64.8637 81.1685 61.2113Z" fill="#1D2534"/>
<path d="M86.7368 68.3845V53.0816H93.8732C96.6605 53.0816 98.3665 54.6876 98.3665 56.9819C98.3665 58.9091 97.0209 60.1939 95.5552 60.4921C97.2612 60.7445 98.6788 62.4193 98.6788 64.2548C98.6788 66.7096 96.9728 68.3845 94.0414 68.3845H86.7368ZM88.7312 59.7121H93.5368C95.3389 59.7121 96.3 58.6567 96.3 57.2572C96.3 55.8807 95.3389 54.7794 93.5368 54.7794H88.7312V59.7121ZM88.7312 66.6867H93.6329C95.5071 66.6867 96.6124 65.6772 96.6124 64.0483C96.6124 62.6488 95.6032 61.4099 93.6329 61.4099H88.7312V66.6867Z" fill="#1D2534"/>
<path d="M102.261 68.3845V53.0816H104.411V68.3845H102.261Z" fill="#1D2534"/>
<path d="M107.994 68.3845V53.0816H110.062V66.6867H117.786V68.3845H107.994Z" fill="#1D2534"/>
<path d="M121.369 68.3845V53.0816H132.355V54.7794H123.455V59.7121H132.179V61.4099H123.455V66.6867H132.355V68.3845H121.369Z" fill="#1D2534"/>
<path d="M0 45.9084V10.2816H16.6831C24.4365 10.2816 28.6607 15.5161 28.6607 21.7655C28.6607 27.9615 24.383 33.1426 16.6831 33.1426H7.59296V45.9084H0ZM20.9074 21.7121C20.9074 18.7743 18.6616 16.798 15.6672 16.798H7.59296V26.6261H15.6672C18.6616 26.6261 20.9074 24.7032 20.9074 21.7121Z" fill="#1D2534"/>
<path d="M51.2253 45.9084L44.2145 33.1426H38.6487V45.9084H31.0491V10.2816H47.7467C55.1856 10.2816 59.7346 15.1422 59.7346 21.7655C59.7346 28.0683 55.7743 31.4334 51.9211 32.3414L59.9487 45.9084H51.2253ZM51.9746 21.7121C51.9746 18.7209 49.6733 16.798 46.6228 16.798H38.6487V26.6261H46.6228C49.6733 26.6261 51.9746 24.7032 51.9746 21.7121Z" fill="#1D2534"/>
<path d="M62.3371 45.9084V10.2816H69.5023V45.9084H62.3371Z" fill="#1D2534"/>
<path d="M71.8907 45.9084V10.2816H85.8382C96.922 10.2816 104.612 17.3856 104.612 28.1217C104.612 38.8579 96.922 45.9084 85.8382 45.9084H71.8907ZM79.4213 39.2317H85.8382C92.8385 39.2317 96.922 34.1575 96.922 28.1217C96.922 21.8189 93.1037 16.9583 85.8382 16.9583H79.4213V39.2317Z" fill="#1D2534"/>
<path d="M107 45.9084V10.2816H132.078V16.798H114.545V24.543H131.706V31.0595H114.545V39.3386H132.078V45.9084H107Z" fill="#1D2534"/>
<path d="M152.368 64.509C150.382 62.615 148.101 59.2323 148.224 54.6471C148.305 51.645 149.622 49.0082 151.269 46.9166C152.908 44.8336 154.848 43.3254 156.123 42.5778C157.914 41.7258 163.238 39.2118 170.375 35.8914L170.387 35.8859L170.399 35.8799C172.549 34.74 173.837 34.034 174.572 33.6139C174.939 33.4049 175.176 33.2625 175.316 33.1708C175.379 33.1299 175.448 33.0827 175.5 33.0362C175.514 33.0235 175.539 32.9997 175.566 32.9674C175.566 32.967 175.566 32.9665 175.567 32.9659C175.58 32.9493 175.661 32.8504 175.677 32.6988C175.688 32.5972 175.669 32.4619 175.577 32.3405C175.491 32.2285 175.383 32.1825 175.32 32.1637C175.211 32.1317 175.12 32.145 175.099 32.1479L175.098 32.1481L175.024 32.1587L174.957 32.1901C174.248 32.5216 172.446 32.925 170.964 31.9603C169.529 31.0266 169.52 29.4394 169.699 28.7639L169.703 28.7511L169.706 28.7381C169.763 28.4649 170.016 27.7685 170.505 27.3139C170.602 27.2236 170.683 27.1456 170.753 27.0777C170.995 26.8434 171.112 26.7305 171.343 26.6551C171.646 26.5559 172.181 26.5311 173.393 26.7539C175.846 27.2049 178.363 28.9133 179.695 30.0215L180.471 29.4331C180.043 28.4753 179.235 27.0543 178.187 25.8849C177.752 25.3998 177.256 24.9367 176.712 24.5712C177.706 24.4895 178.77 24.4037 179.633 24.3347L179.648 24.3336L179.662 24.3316C180.868 24.1657 184.044 24.6969 186.216 28.5637L186.299 28.7102L186.453 28.7773C186.743 28.9038 187.196 29.0456 187.67 29.1939C187.898 29.2653 188.131 29.3382 188.353 29.4117C189.052 29.6426 189.665 29.8845 190.017 30.1382C190.018 30.1782 190.015 30.2409 190.002 30.3344C189.98 30.4949 189.944 30.6644 189.901 30.8689C189.869 31.0201 189.833 31.1906 189.795 31.3909L189.736 31.7059L189.998 31.8911L197.736 37.368L196.689 38.2368L195.579 37.4552L195.45 37.3639H195.291H191.973H190.169L191.715 38.2925L195.112 40.3329L194.805 42.2234C194.803 42.2245 194.802 42.2257 194.801 42.227C194.767 42.2607 194.688 42.3218 194.536 42.3777C194.23 42.49 193.648 42.5737 192.646 42.3826C191.543 42.1724 190.941 42.0823 190.36 42.0971C189.922 42.1081 189.497 42.1803 188.892 42.2831C188.715 42.3131 188.523 42.3457 188.31 42.3802L188.271 42.3867L188.232 42.3995C188.111 42.4398 188.026 42.5181 188 42.5421L187.999 42.5429C187.956 42.5826 187.915 42.6275 187.878 42.6718C187.804 42.7606 187.726 42.874 187.661 42.9974C187.6 43.1148 187.532 43.2759 187.515 43.4528C187.496 43.6383 187.532 43.9066 187.766 44.1015C187.874 44.1921 188.008 44.2312 188.062 44.247C188.142 44.2702 188.234 44.2899 188.331 44.3073C188.525 44.3424 188.774 44.3746 189.054 44.4036C189.617 44.4618 190.335 44.5101 191.055 44.5401C191.775 44.57 192.505 44.582 193.09 44.5659C193.318 44.5596 193.529 44.549 193.712 44.5327C193.664 44.6912 193.6 44.8712 193.521 45.0576C193.37 45.411 193.181 45.749 192.981 45.9862C192.765 46.2421 192.625 46.2789 192.575 46.2767C192.543 46.2752 192.508 46.2737 192.471 46.2721C191.814 46.2434 190.296 46.177 188.849 45.8103C188.084 45.6164 187.371 45.3461 186.825 44.9757C186.285 44.609 185.937 44.1654 185.825 43.6178C185.537 42.2013 185.481 41.5993 185.477 41.2857C185.476 41.1645 185.482 41.088 185.489 41.0018C185.491 40.9782 185.493 40.9538 185.494 40.9276C185.504 40.7941 185.506 40.6556 185.475 40.453C185.465 40.3869 185.44 40.2514 185.35 40.1297C185.298 40.0593 185.211 39.976 185.079 39.9334C184.945 39.89 184.822 39.9067 184.732 39.9381C184.58 39.9911 184.485 40.0983 184.448 40.1412C184.398 40.1994 184.354 40.2646 184.318 40.3245C184.176 40.5547 184.006 40.9279 183.843 41.2875C183.83 41.3145 183.818 41.3415 183.806 41.3686C183.646 41.7201 183.485 42.0757 183.333 42.3653C183.251 42.5214 183.179 42.6447 183.118 42.7312C183.088 42.7738 183.068 42.7971 183.059 42.808C183.011 42.8271 182.95 42.8423 182.833 42.871C182.789 42.8819 182.737 42.8948 182.674 42.9106C182.445 42.9687 182.153 43.053 181.808 43.2224C181.34 43.452 180.797 43.8248 180.166 44.4635C180.177 44.3541 180.187 44.2414 180.196 44.1269C180.244 43.539 180.266 42.8635 180.194 42.2197C180.128 41.6317 179.978 41.0243 179.656 40.532C179.537 39.3811 179.518 38.7623 179.565 38.2519C179.603 37.8289 179.685 37.4757 179.811 36.9318C179.845 36.785 179.883 36.6243 179.923 36.4446C179.94 36.3704 179.96 36.2801 179.966 36.2113C179.967 36.195 179.971 36.1472 179.964 36.0897C179.96 36.0632 179.95 35.9983 179.913 35.9249C179.875 35.848 179.776 35.7071 179.579 35.6607C179.397 35.6177 179.257 35.6878 179.203 35.7202C179.144 35.7558 179.106 35.7955 179.09 35.8134C179.055 35.8515 179.032 35.8879 179.023 35.9019C178.989 35.9581 178.952 36.0382 178.924 36.1005C178.895 36.1636 178.86 36.2434 178.82 36.3351L178.799 36.3823C178.6 36.8321 178.261 37.5963 177.763 38.541C176.772 40.4209 175.163 42.9983 172.823 45.2032C170.489 46.4023 167.051 48.392 164.054 50.6412C162.543 51.7759 161.131 52.9854 160.029 54.2016C159.609 54.6653 159.228 55.1363 158.902 55.6103C159.539 51.4513 162.692 44.5378 172.32 38.7136L171.879 37.8199C167.124 39.6728 160.478 43.3134 156.023 48.2349C153.792 50.6993 152.089 53.5096 151.471 56.6004C150.972 59.0967 151.187 61.7482 152.368 64.509ZM184.487 40.6041C184.487 40.6044 184.487 40.6046 184.487 40.6048L184.487 40.6041ZM194.822 42.2021C194.822 42.2021 194.821 42.2041 194.818 42.208C194.821 42.2041 194.822 42.2021 194.822 42.2021ZM178.403 50.038C183.103 48.2367 186.368 48.5019 187.737 48.91C187.478 49.4114 187.021 49.9611 186.475 50.4911C185.796 51.1503 185.044 51.7171 184.556 52.0391L174.319 57.2949C168.514 59.9361 165.189 63.0375 163.322 65.9808C162.168 67.8001 161.58 69.5443 161.302 71.0581C160.483 67.9677 160.5 65.3755 161.07 63.1868C161.779 60.4679 163.356 58.3204 165.35 56.5865C168.813 53.5758 173.464 51.8636 176.872 50.6087C177.418 50.4079 177.931 50.2188 178.403 50.038Z" fill="#1D2534" stroke="#1D2534"/>
<path d="M170.35 30.0923L170.353 30.1379L170.365 30.1822C170.54 30.8722 171.139 31.6659 172.285 32.0082C173.42 32.3471 175.037 32.2304 177.265 31.2555L177.065 30.2974C175.713 30.2974 174.846 30.0203 174.428 29.8224C174.593 28.9873 174.389 28.3414 173.95 27.8949C173.485 27.4213 172.838 27.2595 172.4 27.2393L172.4 27.2392L172.393 27.239C171.951 27.2252 171.573 27.3453 171.267 27.5685C170.968 27.7866 170.767 28.0823 170.632 28.3805C170.367 28.9664 170.321 29.6465 170.35 30.0923Z" fill="white" stroke="#1D2534"/>
<path d="M153.468 34.464C159.637 32.3315 165.056 31.8272 166.637 31.2471C166.953 31.6163 166.907 34.1164 153.468 39.052C144.978 42.1696 143.165 54.2253 141.62 53.2234C140.396 44.0393 144.098 37.703 153.468 34.464Z" fill="#1D2534" stroke="#1D2534"/>
<path d="M172.011 71.0483C170.701 71.9956 169.664 72.8826 168.886 73.6678C169.256 72.4881 169.805 71.2675 170.415 70.1192C171.369 68.3235 172.446 66.7497 173.14 65.8569L173.175 65.8124L173.199 65.7612C173.22 65.7151 173.33 65.5515 173.628 65.2546C173.913 64.9715 174.336 64.5982 174.935 64.1335C176.133 63.2046 178.013 61.925 180.845 60.2873C186.282 57.1425 189.386 52.923 190.458 50.8331L192.222 51.2379C192.282 54.9438 190.714 58.0561 188.63 60.4776C186.472 62.9859 183.783 64.7235 181.868 65.567C177.599 67.4475 174.354 69.354 172.011 71.0483Z" fill="#1D2534" stroke="#1D2534"/>
<path d="M190.398 70.468C187.57 71.5878 184.592 72.2076 182.04 72.4949C188.44 69.8844 192.167 65.7388 194.184 61.4049C196.263 56.9376 196.512 52.2994 196.046 48.9884C201.115 52.9053 200.962 58.796 200.188 61.388C198.61 65.9139 194.718 68.7574 190.398 70.468ZM205.557 57.084C205.596 53.4222 204.001 47.3355 197.451 44.5019C197.925 43.8151 198.568 42.6987 199.056 41.3181C201.179 41.6858 205.284 43.3348 207.325 47.5732C208.385 49.7745 208.137 52.1025 207.398 54.0245C207.029 54.9837 206.542 55.8288 206.05 56.487C205.882 56.7122 205.716 56.9115 205.557 57.084Z" fill="#1D2534" stroke="#1D2534"/>
<path d="M181.762 31.3615L181.825 32.351C182.993 32.4289 184.591 32.9925 186.156 33.7023C187.705 34.4051 189.161 35.2224 190.023 35.7574L190.787 36.2315V35.3326C190.787 35.15 190.719 34.9845 190.662 34.8694C190.599 34.7434 190.517 34.6143 190.43 34.4906C190.255 34.2435 190.026 33.9674 189.808 33.7066C189.789 33.6845 189.771 33.6625 189.753 33.6406C189.548 33.3963 189.354 33.1649 189.198 32.9564C189.013 32.7087 188.94 32.5693 188.928 32.522C188.869 32.2828 188.88 32.1174 188.902 31.9926C188.913 31.9344 188.925 31.8856 188.94 31.8258C188.944 31.8129 188.947 31.7995 188.951 31.7854L188.951 31.7822C188.967 31.7184 188.996 31.6039 188.996 31.4829C188.996 31.4058 188.987 31.2649 188.902 31.1295C188.79 30.952 188.601 30.8665 188.417 30.8739C188.275 30.8796 188.169 30.9378 188.121 30.9675C188.064 31.0028 188.018 31.0428 187.984 31.0769L187.757 31.3041C187.477 31.1483 187.16 31.0431 186.882 30.9703C186.585 30.8925 186.286 30.8401 186.033 30.8078C185.997 30.7089 185.953 30.6081 185.902 30.518C185.851 30.4274 185.746 30.2624 185.566 30.1661C185.461 30.1099 185.321 30.073 185.165 30.1018C185.013 30.1296 184.9 30.209 184.824 30.2858L184.816 30.2929L184.81 30.3003C184.75 30.3645 184.608 30.4647 184.357 30.5836C184.119 30.6968 183.825 30.8072 183.51 30.9099C182.878 31.115 182.195 31.2765 181.762 31.3615ZM188.692 31.7836C188.692 31.7836 188.691 31.7837 188.691 31.7838L188.692 31.7836L188.485 31.5774L188.692 31.7836Z" fill="white" stroke="#1D2534"/>
<path d="M154.218 25.7511C153.691 25.962 151.025 25.0371 149.813 24.5795C149.534 24.4743 149.304 24.2983 149.374 24.1928C149.356 23.9467 149.5 23.4229 150.217 23.2963C151.112 23.1381 154.113 24.4327 154.481 24.6964C154.773 24.9052 154.711 25.2879 154.641 25.4584C154.641 25.4601 154.64 25.4618 154.639 25.4636C154.608 25.5354 154.499 25.6386 154.218 25.7511Z" fill="#FF4F12"/>
<path d="M156.276 21.492C155.75 21.7029 150.217 18.0404 148.902 17.0911C148.061 16.4841 147.883 16.3001 147.954 16.1946C147.936 15.9485 148.08 15.4247 148.796 15.2982C149.692 15.14 156.171 20.1736 156.54 20.4373C156.832 20.6461 156.769 21.0288 156.7 21.1993C156.699 21.201 156.699 21.2027 156.698 21.2045C156.667 21.2763 156.557 21.3795 156.276 21.492Z" fill="#FF4F12"/>
<path d="M162.016 14.9528C161.489 15.1638 158.647 11.343 157.172 9.70822C156.477 8.93814 155.682 8.07341 155.752 7.96794C155.734 7.72184 155.823 6.72339 156.54 6.59683C157.435 6.43862 161.911 13.6345 162.279 13.8981C162.571 14.107 162.509 14.4897 162.44 14.6602C162.439 14.6619 162.438 14.6636 162.437 14.6653C162.406 14.7372 162.297 14.8403 162.016 14.9528Z" fill="#FF4F12"/>
<path d="M158.908 17.8646C158.381 18.0755 156.54 16.1946 156.54 16.1946C156.54 16.1946 156.031 15.9134 156.101 15.8079C156.083 15.5618 156.216 14.9114 156.944 14.9114C157.857 14.9114 158.803 16.5462 159.172 16.8099C159.464 17.0187 159.401 17.4014 159.332 17.5719C159.331 17.5736 159.33 17.5753 159.33 17.5771C159.298 17.6489 159.189 17.7521 158.908 17.8646Z" fill="#FF4F12"/>
<path d="M165.3 12.6614C164.773 12.8723 164.02 11.343 164.02 11.343C164.02 11.343 163.511 10.8508 163.581 10.7453C163.563 10.4993 163.714 10.2883 164.441 10.2883C165.3 10.2883 165.194 11.343 165.563 11.6067C165.855 11.8155 165.793 12.1982 165.723 12.3688C165.722 12.3705 165.722 12.3722 165.721 12.3739C165.69 12.4458 165.581 12.5489 165.3 12.6614Z" fill="#FF4F12"/>
<path d="M168.443 11.1085C167.231 9.63174 166.864 7.01892 166.019 5.36035C165.549 4.43593 165.227 3.09273 165.297 2.98726C165.28 2.74116 165.561 1.93256 166.507 2.3017C167.354 2.63229 169.111 9.54633 169.233 9.98338C169.391 10.5522 169.462 10.5749 169.393 10.7454C169.392 10.7471 169.392 10.7489 169.391 10.7506C169.36 10.8225 168.635 11.3426 168.443 11.1085Z" fill="#FF4F12"/>
<path d="M176.138 9.49241C174.926 8.01566 175.838 5.31237 175.505 3.48058C175.295 2.32041 175.646 0.843825 175.716 0.738354C176.133 0.0527964 176.399 -0.325379 177.141 0.369198C177.929 1.10749 176.959 8.17402 176.98 8.25046C177.138 8.81926 177.21 8.842 177.141 9.01251C177.14 9.0142 177.139 9.01594 177.138 9.01767C176.98 9.38163 176.33 9.72649 176.138 9.49241Z" fill="#FF4F12"/>
<path d="M184.438 10.7684C183.209 10.9253 184.579 6.70778 184.857 6.18559C186.124 3.80735 185.544 4.38863 186.124 2.64837C186.541 1.96281 187.191 1.95379 187.933 2.64837C188.721 3.38666 186.596 6.92388 186.596 6.92388C186.069 8.82235 185.529 9.94317 185.459 10.1137C185.459 10.1154 185.458 10.1171 185.457 10.1188C185.299 10.4828 184.738 10.7301 184.438 10.7684Z" fill="#FF4F12"/>
<path d="M172.764 10.1304C172.237 10.3414 171.869 9.18118 171.869 9.18118C171.869 9.18118 171.518 7.84522 171.588 7.73975C171.57 7.49365 171.721 7.17724 172.448 7.17724C173.306 7.17724 172.87 8.75403 173.238 9.0177C173.53 9.22652 173.468 9.60926 173.398 9.77977C173.398 9.78146 173.397 9.78317 173.396 9.7849C173.365 9.85678 173.045 10.0179 172.764 10.1304Z" fill="#FF4F12"/>
<path d="M180.553 10.1727C180.026 10.3836 180.237 8.12644 180.237 8.12644C180.237 8.12644 180.219 7.47904 180.289 7.37357C180.272 7.12748 180.57 7.07174 181.298 7.07174C182.156 7.07174 181.78 7.93647 181.78 8.39011C181.78 9.01251 181.046 9.70953 180.976 9.88004C180.976 9.88174 180.975 9.88345 180.974 9.88518C180.943 9.95705 180.834 10.0602 180.553 10.1727Z" fill="#FF4F12"/>
<path d="M187.935 12.835C187.408 13.0459 187.724 11.5746 187.724 11.5746C187.724 11.5746 188.286 10.5199 188.356 10.4144C188.567 10.1508 188.778 10.1341 189.096 10.1508C189.953 10.1958 189.721 11.0387 189.578 11.4692C189.305 12.2925 188.428 12.3718 188.359 12.5423C188.358 12.544 188.357 12.5457 188.356 12.5475C188.325 12.6193 188.216 12.7225 187.935 12.835Z" fill="#FF4F12"/>
<path d="M191.041 14.5889C189.811 14.7458 192.185 12.0816 192.463 11.5594C193.729 9.18114 194.601 9.49241 195.887 7.37873C196.304 6.69318 196.955 6.68416 197.696 7.37873C198.484 8.11703 195.573 10.7453 195.573 10.7453C194.73 11.9761 193.944 11.7853 192.275 14.3034C192.274 14.3051 192.273 14.3069 192.272 14.3086C192.114 14.6726 191.341 14.5506 191.041 14.5889Z" fill="#FF4F12"/>
<path d="M194.412 17.9823C193.885 18.1933 194.201 16.722 194.201 16.722C194.201 16.722 194.941 15.773 196.055 15.2982C196.574 15.0345 196.732 15.0347 196.795 15.0345C197.653 15.0315 197.561 15.9966 197.153 16.1946C195.887 16.8099 194.905 17.5192 194.835 17.6897C194.835 17.6914 194.834 17.6931 194.833 17.6948C194.802 17.7667 194.693 17.8698 194.412 17.9823Z" fill="#FF4F12"/>
<path d="M197.155 21.1177C195.204 21.3667 198.139 19.1638 198.628 18.8317C201.736 16.722 201.441 16.8751 203.669 15.8028C205.265 15.0345 205.077 14.8692 205.478 15.8028C206.056 17.1442 203 18.3043 203 18.3043C201.171 19.0213 201.209 19.3063 198.389 20.8322C198.389 20.8339 198.388 20.8357 198.387 20.8374C198.229 21.2014 197.456 21.0794 197.155 21.1177Z" fill="#FF4F12"/>
<path d="M199.248 25.8103C198.734 26.2906 199.037 24.55 199.037 24.55C199.037 24.55 200.164 23.4197 202.421 23.3899C202.421 23.3899 203.353 23.3901 203.416 23.3899C204.274 23.3868 204.182 24.3519 203.775 24.55C202.508 25.1652 201.694 25.2178 200.472 25.4468C200.471 25.4485 199.67 25.5211 199.669 25.5228C199.524 25.5523 199.469 25.6037 199.248 25.8103Z" fill="#FF4F12"/>
<path d="M166.62 26.0603C161.479 28.9713 158.719 29.4178 157.981 29.2771C157.349 25.7966 164.671 10.6616 179.842 13.1402C191.979 15.123 195.469 25.0408 195.698 29.7518L192.748 30.3846C192.748 29.3299 191.554 28.0818 190.957 27.5896C188.976 26.9989 188.024 26.324 187.796 26.0603C186.026 24.1618 184.53 23.0895 184.003 22.7907C180.158 21.1559 173.047 22.4216 166.62 26.0603Z" fill="#FF4F12"/>
<path d="M49 75.7156H49.8434V79.3479H49.8618L52.273 75.7156H53.2402V80.4539H52.3921V76.8217H52.3738L49.9672 80.4539H49V75.7156Z" fill="#1D2534"/>
<path d="M54.7641 75.7156H55.6075V77.6269H57.8995V75.7156H58.7475V80.4539H57.8995V78.3347H55.6075V80.4539H54.7641V75.7156Z" fill="#1D2534"/>
<path d="M61.5778 76.4235H59.8864V75.7156H64.1128V76.4235H62.4213V80.4539H61.5778V76.4235Z" fill="#1D2534"/>
<path d="M69.4276 78.9409C69.394 79.1473 69.3207 79.3494 69.2076 79.547C69.0945 79.7446 68.9463 79.9216 68.7629 80.0779C68.5796 80.2342 68.3626 80.3596 68.112 80.4539C67.8645 80.5513 67.5894 80.5999 67.2869 80.5999C66.9569 80.5999 66.6513 80.5483 66.3701 80.4451C66.092 80.3389 65.8506 80.1811 65.6458 79.9717C65.4441 79.7593 65.2852 79.4939 65.1691 79.1753C65.053 78.8568 64.9949 78.4822 64.9949 78.0516C64.9949 77.7625 65.027 77.5015 65.0912 77.2685C65.1584 77.0326 65.247 76.8231 65.357 76.6403C65.4701 76.4545 65.6 76.2952 65.7467 76.1625C65.8934 76.0268 66.0477 75.9162 66.2097 75.8306C66.3747 75.7422 66.5428 75.6773 66.7139 75.636C66.885 75.5917 67.0501 75.5696 67.209 75.5696C67.5451 75.5696 67.8523 75.6183 68.1303 75.7156C68.4084 75.8129 68.6468 75.9619 68.8454 76.1625C69.0471 76.3601 69.203 76.6093 69.313 76.9101C69.4261 77.208 69.4826 77.559 69.4826 77.9631V78.3701H65.8934C65.8964 78.6002 65.93 78.8096 65.9942 78.9984C66.0584 79.1842 66.1501 79.3435 66.2693 79.4762C66.3884 79.6089 66.5321 79.7122 66.7002 79.7859C66.8713 79.8567 67.0638 79.8921 67.2777 79.8921C67.4947 79.8921 67.6781 79.8626 67.8278 79.8036C67.9775 79.7446 68.1028 79.6694 68.2037 79.578C68.3045 79.4865 68.3855 79.3848 68.4466 79.2727C68.5108 79.1606 68.5643 79.05 68.6071 78.9409H69.4276ZM68.6346 77.7198C68.6285 77.4897 68.5918 77.2847 68.5246 77.1048C68.4604 76.9249 68.3687 76.7745 68.2495 76.6535C68.1334 76.5297 67.9928 76.4368 67.8278 76.3748C67.6628 76.3099 67.4794 76.2775 67.2777 76.2775C67.0852 76.2775 66.908 76.3144 66.746 76.3881C66.584 76.4589 66.4419 76.5592 66.3197 76.6889C66.1974 76.8158 66.0997 76.9677 66.0263 77.1446C65.953 77.3187 65.9087 77.5104 65.8934 77.7198H68.6346Z" fill="#1D2534"/>
<path d="M70.7086 75.7156H71.552V76.366H71.5703C71.6253 76.2568 71.6941 76.1536 71.7766 76.0563C71.8622 75.9589 71.963 75.8749 72.0792 75.8041C72.1983 75.7304 72.3343 75.6728 72.4871 75.6315C72.643 75.5903 72.8202 75.5696 73.0189 75.5696C73.2817 75.5696 73.5338 75.6183 73.7752 75.7156C74.0166 75.8129 74.2306 75.9589 74.417 76.1536C74.6034 76.3483 74.7516 76.5931 74.8616 76.888C74.9716 77.18 75.0266 77.5207 75.0266 77.91C75.0266 78.3967 74.9747 78.8111 74.8708 79.1532C74.7699 79.4924 74.6248 79.7697 74.4353 79.985C74.2489 80.2003 74.0228 80.3566 73.7569 80.4539C73.491 80.5513 73.1946 80.5999 72.8676 80.5999C72.7056 80.5999 72.5544 80.5793 72.4138 80.538C72.2732 80.4967 72.1464 80.4436 72.0333 80.3787C71.9233 80.3109 71.8286 80.2372 71.7491 80.1575C71.6697 80.0749 71.6101 79.9953 71.5703 79.9186H71.552V82.321H70.7086V75.7156ZM71.5337 78.1091C71.5337 78.3657 71.5596 78.6032 71.6116 78.8214C71.6635 79.0367 71.743 79.224 71.85 79.3833C71.96 79.5426 72.096 79.6679 72.2579 79.7593C72.423 79.8478 72.617 79.8921 72.8401 79.8921C73.0724 79.8921 73.2725 79.8478 73.4406 79.7593C73.6117 79.6679 73.7523 79.5426 73.8623 79.3833C73.9723 79.224 74.0533 79.0367 74.1053 78.8214C74.1572 78.6032 74.1832 78.3657 74.1832 78.1091C74.1832 77.8407 74.1572 77.5944 74.1053 77.3703C74.0533 77.1461 73.9723 76.9529 73.8623 76.7907C73.7523 76.6285 73.6117 76.5031 73.4406 76.4146C73.2725 76.3232 73.0724 76.2775 72.8401 76.2775C72.617 76.2775 72.423 76.3232 72.2579 76.4146C72.096 76.5031 71.96 76.6285 71.85 76.7907C71.743 76.9529 71.6635 77.1461 71.6116 77.3703C71.5596 77.5944 71.5337 77.8407 71.5337 78.1091Z" fill="#1D2534"/>
<path d="M76.2617 75.7156H77.1052V77.6269H79.3972V75.7156H80.2452V80.4539H79.3972V78.3347H77.1052V80.4539H76.2617V75.7156Z" fill="#1D2534"/>
<path d="M85.9497 78.9409C85.9161 79.1473 85.8427 79.3494 85.7297 79.547C85.6166 79.7446 85.4684 79.9216 85.285 80.0779C85.1017 80.2342 84.8847 80.3596 84.6341 80.4539C84.3866 80.5513 84.1115 80.5999 83.809 80.5999C83.4789 80.5999 83.1733 80.5483 82.8922 80.4451C82.6141 80.3389 82.3727 80.1811 82.1679 79.9717C81.9662 79.7593 81.8073 79.4939 81.6912 79.1753C81.5751 78.8568 81.517 78.4822 81.517 78.0516C81.517 77.7625 81.5491 77.5015 81.6133 77.2685C81.6805 77.0326 81.7691 76.8231 81.8791 76.6403C81.9922 76.4545 82.1221 76.2952 82.2688 76.1625C82.4154 76.0268 82.5698 75.9162 82.7317 75.8306C82.8968 75.7422 83.0648 75.6773 83.236 75.636C83.4071 75.5917 83.5721 75.5696 83.731 75.5696C84.0672 75.5696 84.3743 75.6183 84.6524 75.7156C84.9305 75.8129 85.1689 75.9619 85.3675 76.1625C85.5692 76.3601 85.7251 76.6093 85.8351 76.9101C85.9482 77.208 86.0047 77.559 86.0047 77.9631V78.3701H82.4154C82.4185 78.6002 82.4521 78.8096 82.5163 78.9984C82.5805 79.1842 82.6721 79.3435 82.7913 79.4762C82.9105 79.6089 83.0541 79.7122 83.2222 79.7859C83.3934 79.8567 83.5859 79.8921 83.7998 79.8921C84.0168 79.8921 84.2001 79.8626 84.3499 79.8036C84.4996 79.7446 84.6249 79.6694 84.7258 79.578C84.8266 79.4865 84.9076 79.3848 84.9687 79.2727C85.0329 79.1606 85.0864 79.05 85.1292 78.9409H85.9497ZM85.1567 77.7198C85.1505 77.4897 85.1139 77.2847 85.0466 77.1048C84.9825 76.9249 84.8908 76.7745 84.7716 76.6535C84.6555 76.5297 84.5149 76.4368 84.3499 76.3748C84.1849 76.3099 84.0015 76.2775 83.7998 76.2775C83.6073 76.2775 83.43 76.3144 83.2681 76.3881C83.1061 76.4589 82.964 76.5592 82.8418 76.6889C82.7195 76.8158 82.6217 76.9677 82.5484 77.1446C82.475 77.3187 82.4307 77.5104 82.4154 77.7198H85.1567Z" fill="#1D2534"/>
<path d="M88.5829 76.4235H86.8914V75.7156H91.1178V76.4235H89.4263V80.4539H88.5829V76.4235Z" fill="#1D2534"/>
<path d="M92.0229 77.5207H94.324V78.3392H92.0229V77.5207Z" fill="#1D2534"/>
<path d="M95.66 75.7156H96.8885L98.1857 79.6001H98.2041L99.5197 75.7156H100.675V80.4539H99.8864V76.6403H99.8681L98.5708 80.4539H97.764L96.4668 76.6403H96.4484V80.4539H95.66V75.7156Z" fill="#1D2534"/>
<path d="M102.185 77.1358C102.194 76.8467 102.251 76.6034 102.355 76.4058C102.458 76.2052 102.599 76.043 102.776 75.9191C102.954 75.7952 103.163 75.7068 103.404 75.6537C103.649 75.5976 103.915 75.5696 104.202 75.5696C104.44 75.5696 104.671 75.5932 104.894 75.6404C105.12 75.6876 105.32 75.7643 105.495 75.8705C105.669 75.9737 105.808 76.1094 105.912 76.2775C106.019 76.4427 106.072 76.6447 106.072 76.8836V79.6399C106.072 79.7166 106.094 79.7829 106.136 79.839C106.179 79.8921 106.248 79.9186 106.343 79.9186C106.385 79.9186 106.43 79.9157 106.476 79.9098C106.521 79.9009 106.569 79.8921 106.618 79.8832V80.4451C106.547 80.4628 106.477 80.479 106.407 80.4938C106.34 80.5085 106.259 80.5159 106.164 80.5159C106.017 80.5159 105.89 80.5041 105.783 80.4805C105.679 80.4569 105.591 80.4186 105.518 80.3655C105.447 80.3094 105.392 80.2386 105.353 80.1531C105.313 80.0646 105.287 79.957 105.275 79.8301C105.171 79.9393 105.061 80.041 104.945 80.1354C104.828 80.2268 104.699 80.3079 104.555 80.3787C104.411 80.4466 104.251 80.4997 104.074 80.538C103.896 80.5793 103.696 80.5999 103.473 80.5999C103.284 80.5999 103.099 80.5705 102.918 80.5115C102.741 80.4525 102.581 80.3655 102.437 80.2504C102.297 80.1354 102.183 79.9938 102.098 79.8257C102.012 79.6546 101.97 79.457 101.97 79.2329C101.97 78.9881 102.012 78.7772 102.098 78.6002C102.183 78.4203 102.295 78.2713 102.433 78.1534C102.57 78.0324 102.727 77.9395 102.905 77.8746C103.082 77.8097 103.262 77.767 103.446 77.7463L104.825 77.5826C104.957 77.5679 105.059 77.5192 105.132 77.4366C105.209 77.3511 105.247 77.2154 105.247 77.0296C105.247 76.7435 105.149 76.5385 104.954 76.4146C104.761 76.2878 104.483 76.2244 104.119 76.2244C103.747 76.2244 103.468 76.3011 103.285 76.4545C103.102 76.6049 102.998 76.832 102.973 77.1358H102.185ZM105.229 78.0427C105.162 78.0899 105.077 78.1298 104.977 78.1622C104.879 78.1917 104.77 78.2168 104.651 78.2374C104.532 78.2581 104.405 78.2772 104.271 78.2949C104.136 78.3097 104.002 78.3259 103.867 78.3436C103.715 78.3642 103.574 78.3937 103.446 78.4321C103.317 78.4704 103.206 78.5206 103.111 78.5825C103.016 78.6444 102.943 78.7197 102.891 78.8081C102.839 78.8937 102.813 78.9954 102.813 79.1134C102.813 79.2491 102.834 79.3685 102.877 79.4718C102.923 79.575 102.984 79.662 103.061 79.7328C103.14 79.8036 103.235 79.8567 103.345 79.8921C103.455 79.9275 103.575 79.9452 103.707 79.9452C103.789 79.9452 103.884 79.9363 103.991 79.9186C104.098 79.898 104.208 79.8685 104.321 79.8301C104.434 79.7918 104.544 79.7431 104.651 79.6841C104.761 79.6222 104.859 79.5485 104.945 79.4629C105.03 79.3774 105.099 79.2801 105.151 79.1709C105.203 79.0618 105.229 78.9394 105.229 78.8037V78.0427Z" fill="#1D2534"/>
<path d="M107.702 75.7156H110.75V76.4235H108.545V80.4539H107.702V75.7156Z" fill="#1D2534"/>
<path d="M111.76 77.1358C111.77 76.8467 111.826 76.6034 111.93 76.4058C112.034 76.2052 112.174 76.043 112.352 75.9191C112.529 75.7952 112.738 75.7068 112.98 75.6537C113.224 75.5976 113.49 75.5696 113.777 75.5696C114.016 75.5696 114.246 75.5932 114.469 75.6404C114.696 75.6876 114.896 75.7643 115.07 75.8705C115.244 75.9737 115.383 76.1094 115.487 76.2775C115.594 76.4427 115.648 76.6447 115.648 76.8836V79.6399C115.648 79.7166 115.669 79.7829 115.712 79.839C115.754 79.8921 115.823 79.9186 115.918 79.9186C115.961 79.9186 116.005 79.9157 116.051 79.9098C116.097 79.9009 116.144 79.8921 116.193 79.8832V80.4451C116.123 80.4628 116.052 80.479 115.982 80.4938C115.915 80.5085 115.834 80.5159 115.739 80.5159C115.593 80.5159 115.466 80.5041 115.359 80.4805C115.255 80.4569 115.166 80.4186 115.093 80.3655C115.023 80.3094 114.968 80.2386 114.928 80.1531C114.888 80.0646 114.862 79.957 114.85 79.8301C114.746 79.9393 114.636 80.041 114.52 80.1354C114.404 80.2268 114.274 80.3079 114.13 80.3787C113.987 80.4466 113.826 80.4997 113.649 80.538C113.472 80.5793 113.272 80.5999 113.048 80.5999C112.859 80.5999 112.674 80.5705 112.494 80.5115C112.317 80.4525 112.156 80.3655 112.012 80.2504C111.872 80.1354 111.759 79.9938 111.673 79.8257C111.588 79.6546 111.545 79.457 111.545 79.2329C111.545 78.9881 111.588 78.7772 111.673 78.6002C111.759 78.4203 111.87 78.2713 112.008 78.1534C112.145 78.0324 112.303 77.9395 112.48 77.8746C112.657 77.8097 112.838 77.767 113.021 77.7463L114.401 77.5826C114.532 77.5679 114.634 77.5192 114.708 77.4366C114.784 77.3511 114.822 77.2154 114.822 77.0296C114.822 76.7435 114.725 76.5385 114.529 76.4146C114.337 76.2878 114.058 76.2244 113.695 76.2244C113.322 76.2244 113.044 76.3011 112.86 76.4545C112.677 76.6049 112.573 76.832 112.549 77.1358H111.76ZM114.804 78.0427C114.737 78.0899 114.653 78.1298 114.552 78.1622C114.454 78.1917 114.346 78.2168 114.227 78.2374C114.107 78.2581 113.98 78.2772 113.846 78.2949C113.712 78.3097 113.577 78.3259 113.443 78.3436C113.29 78.3642 113.149 78.3937 113.021 78.4321C112.893 78.4704 112.781 78.5206 112.686 78.5825C112.592 78.6444 112.518 78.7197 112.466 78.8081C112.414 78.8937 112.388 78.9954 112.388 79.1134C112.388 79.2491 112.41 79.3685 112.453 79.4718C112.498 79.575 112.559 79.662 112.636 79.7328C112.715 79.8036 112.81 79.8567 112.92 79.8921C113.03 79.9275 113.151 79.9452 113.282 79.9452C113.365 79.9452 113.459 79.9363 113.566 79.9186C113.673 79.898 113.783 79.8685 113.896 79.8301C114.01 79.7918 114.12 79.7431 114.227 79.6841C114.337 79.6222 114.434 79.5485 114.52 79.4629C114.605 79.3774 114.674 79.2801 114.726 79.1709C114.778 79.0618 114.804 78.9394 114.804 78.8037V78.0427Z" fill="#1D2534"/>
<path d="M118.547 77.7154H118.973C119.086 77.7154 119.204 77.7021 119.326 77.6755C119.448 77.649 119.56 77.6077 119.661 77.5517C119.761 77.4927 119.844 77.4175 119.908 77.326C119.975 77.2346 120.009 77.124 120.009 76.9942C120.009 76.8998 119.988 76.8099 119.945 76.7243C119.905 76.6358 119.844 76.5592 119.761 76.4943C119.682 76.4264 119.581 76.3733 119.459 76.335C119.337 76.2967 119.194 76.2775 119.033 76.2775C118.947 76.2775 118.846 76.2893 118.73 76.3129C118.614 76.3365 118.499 76.3807 118.386 76.4456C118.276 76.5075 118.177 76.5975 118.088 76.7155C118.003 76.8305 117.948 76.9809 117.923 77.1668H117.135C117.156 76.9544 117.2 76.7686 117.268 76.6093C117.335 76.4471 117.419 76.307 117.52 76.189C117.621 76.071 117.734 75.9722 117.859 75.8926C117.987 75.8129 118.119 75.7495 118.253 75.7023C118.391 75.6551 118.528 75.6212 118.666 75.6006C118.803 75.5799 118.935 75.5696 119.06 75.5696C119.28 75.5696 119.497 75.5976 119.711 75.6537C119.925 75.7068 120.116 75.7893 120.284 75.9014C120.455 76.0106 120.593 76.1492 120.696 76.3173C120.8 76.4854 120.852 76.6816 120.852 76.9057C120.852 77.0502 120.831 77.1786 120.788 77.2906C120.745 77.3998 120.689 77.4956 120.619 77.5782C120.551 77.6608 120.475 77.7316 120.389 77.7906C120.304 77.8466 120.22 77.8938 120.137 77.9321V77.9543C120.223 77.969 120.318 78 120.421 78.0472C120.525 78.0914 120.622 78.1563 120.71 78.2418C120.799 78.3244 120.872 78.4321 120.93 78.5648C120.991 78.6946 121.022 78.8539 121.022 79.0426C121.022 79.3081 120.962 79.5381 120.843 79.7328C120.727 79.9275 120.574 80.0897 120.385 80.2195C120.195 80.3463 119.981 80.4407 119.743 80.5026C119.505 80.5675 119.265 80.5999 119.023 80.5999C118.712 80.5999 118.429 80.5616 118.175 80.4849C117.925 80.4082 117.708 80.2991 117.524 80.1575C117.341 80.016 117.194 79.8464 117.084 79.6487C116.977 79.4511 116.913 79.2329 116.892 78.994H117.74C117.761 79.168 117.813 79.3125 117.896 79.4275C117.978 79.5426 118.078 79.634 118.194 79.7018C118.31 79.7697 118.438 79.8183 118.579 79.8478C118.722 79.8773 118.867 79.8921 119.014 79.8921C119.402 79.8921 119.693 79.8169 119.885 79.6664C120.081 79.516 120.179 79.314 120.179 79.0603C120.179 78.9512 120.16 78.8539 120.124 78.7683C120.09 78.6828 120.032 78.6105 119.949 78.5515C119.867 78.4896 119.757 78.4439 119.619 78.4144C119.485 78.3819 119.317 78.3657 119.115 78.3657C119.075 78.3657 119.029 78.3672 118.978 78.3701C118.929 78.3701 118.878 78.3716 118.826 78.3746C118.777 78.3775 118.728 78.3819 118.68 78.3878C118.631 78.3908 118.586 78.3937 118.547 78.3967V77.7154Z" fill="#1D2534"/>
<path d="M122.252 75.7156H123.096V79.3479H123.114L125.525 75.7156H126.493V80.4539H125.645V76.8217H125.626L123.22 80.4539H122.252V75.7156Z" fill="#1D2534"/>
<path d="M128.017 75.7156H128.86V77.6269H131.152V75.7156H132V80.4539H131.152V78.3347H128.86V80.4539H128.017V75.7156Z" fill="#1D2534"/>
<path d="M74.6482 85.0304H76.3397C76.3061 84.5525 76.1792 84.1824 75.9592 83.9199C75.7392 83.6574 75.4305 83.5261 75.0332 83.5261C74.8499 83.5261 74.6895 83.5527 74.5519 83.6058C74.4175 83.6589 74.3029 83.7282 74.2081 83.8137C74.1165 83.8992 74.0416 83.998 73.9835 84.1101C73.9285 84.2222 73.8873 84.3358 73.8598 84.4508H73.053C73.0927 84.1676 73.1783 83.9243 73.3097 83.7208C73.4411 83.5143 73.5985 83.3447 73.7818 83.212C73.9682 83.0763 74.1715 82.9775 74.3915 82.9156C74.6115 82.8507 74.8316 82.8183 75.0516 82.8183C75.403 82.8183 75.7147 82.8802 75.9867 83.0041C76.2587 83.125 76.4864 83.2961 76.6697 83.5173C76.8561 83.7385 76.9967 84.0025 77.0914 84.3092C77.1892 84.616 77.2381 84.9522 77.2381 85.3179C77.2381 85.6925 77.1892 86.0347 77.0914 86.3444C76.9967 86.654 76.8561 86.921 76.6697 87.1451C76.4864 87.3663 76.2587 87.5389 75.9867 87.6628C75.7147 87.7866 75.403 87.8486 75.0516 87.8486C74.7949 87.8486 74.5535 87.8147 74.3273 87.7468C74.1042 87.679 73.9041 87.5758 73.7268 87.4371C73.5526 87.2985 73.4029 87.123 73.2776 86.9107C73.1523 86.6953 73.0591 86.4432 72.998 86.1541H73.8598C73.875 86.2986 73.9148 86.4314 73.9789 86.5523C74.0431 86.6732 74.1256 86.7779 74.2265 86.8664C74.3304 86.9519 74.4496 87.0198 74.584 87.0699C74.7215 87.1171 74.8682 87.1407 75.0241 87.1407C75.2472 87.1407 75.4412 87.0965 75.6062 87.008C75.7713 86.9166 75.9073 86.8 76.0142 86.6585C76.1212 86.5169 76.2006 86.3606 76.2526 86.1895C76.3076 86.0155 76.3366 85.8459 76.3397 85.6807H74.6482V85.0304Z" fill="#1D2534"/>
<path d="M81.7737 83.6721H79.8943L79.8576 84.8092C79.8393 85.3843 79.7934 85.8651 79.7201 86.2514C79.6467 86.6349 79.5459 86.9431 79.4175 87.1761C79.2922 87.4091 79.1394 87.5743 78.9591 87.6716C78.7788 87.769 78.5726 87.8176 78.3403 87.8176C78.2547 87.8176 78.1799 87.8043 78.1157 87.7778C78.0546 87.7542 78.0072 87.7291 77.9736 87.7026V86.9859C78.0928 87.0301 78.1982 87.0522 78.2899 87.0522C78.3541 87.0522 78.4152 87.0419 78.4732 87.0213C78.5344 87.0006 78.5909 86.9608 78.6428 86.9018C78.6979 86.8428 78.7483 86.7602 78.7941 86.654C78.84 86.5449 78.8797 86.4033 78.9133 86.2293C78.95 86.0553 78.979 85.8444 79.0004 85.5967C79.0248 85.3489 79.0416 85.054 79.0508 84.7118L79.0921 82.9643H82.6171V87.7026H81.7737V83.6721Z" fill="#1D2534"/>
<path d="M88.3216 86.1895C88.288 86.396 88.2146 86.598 88.1016 86.7956C87.9885 86.9932 87.8403 87.1702 87.6569 87.3265C87.4736 87.4829 87.2566 87.6082 87.006 87.7026C86.7585 87.7999 86.4834 87.8486 86.1809 87.8486C85.8508 87.8486 85.5453 87.797 85.2641 87.6937C84.986 87.5876 84.7446 87.4298 84.5398 87.2204C84.3381 87.008 84.1792 86.7425 84.0631 86.424C83.947 86.1054 83.8889 85.7309 83.8889 85.3002C83.8889 85.0112 83.921 84.7502 83.9852 84.5172C84.0524 84.2812 84.141 84.0718 84.251 83.8889C84.3641 83.7031 84.494 83.5438 84.6407 83.4111C84.7874 83.2754 84.9417 83.1648 85.1037 83.0793C85.2687 82.9908 85.4368 82.9259 85.6079 82.8846C85.779 82.8404 85.9441 82.8183 86.103 82.8183C86.4391 82.8183 86.7463 82.8669 87.0243 82.9643C87.3024 83.0616 87.5408 83.2105 87.7394 83.4111C87.9411 83.6087 88.097 83.8579 88.207 84.1588C88.3201 84.4567 88.3766 84.8077 88.3766 85.2118V85.6188H84.7874C84.7904 85.8488 84.824 86.0583 84.8882 86.247C84.9524 86.4328 85.0441 86.5921 85.1633 86.7248C85.2824 86.8576 85.4261 86.9608 85.5942 87.0345C85.7653 87.1053 85.9578 87.1407 86.1717 87.1407C86.3887 87.1407 86.5721 87.1112 86.7218 87.0522C86.8715 86.9932 86.9968 86.918 87.0977 86.8266C87.1985 86.7352 87.2795 86.6334 87.3406 86.5213C87.4048 86.4092 87.4583 86.2986 87.5011 86.1895H88.3216ZM87.5286 84.9684C87.5225 84.7384 87.4858 84.5334 87.4186 84.3535C87.3544 84.1735 87.2627 84.0231 87.1435 83.9022C87.0274 83.7783 86.8868 83.6854 86.7218 83.6235C86.5568 83.5586 86.3734 83.5261 86.1717 83.5261C85.9792 83.5261 85.802 83.563 85.64 83.6367C85.478 83.7075 85.3359 83.8078 85.2137 83.9376C85.0914 84.0644 84.9936 84.2163 84.9203 84.3933C84.847 84.5673 84.8027 84.759 84.7874 84.9684H87.5286Z" fill="#1D2534"/>
<path d="M89.6484 82.9643H90.4918V85.256L92.9718 82.9643H94.0765L91.7708 85.0569L94.1132 87.7026H93.0268L91.1107 85.5524L90.4918 86.0524V87.7026H89.6484V82.9643Z" fill="#1D2534"/>
<path d="M96.3797 83.6721H94.6882V82.9643H98.9146V83.6721H97.2231V87.7026H96.3797V83.6721Z" fill="#1D2534"/>
<path d="M100.003 82.9643H100.846V83.6146H100.865C100.92 83.5055 100.989 83.4022 101.071 83.3049C101.157 83.2076 101.257 83.1235 101.374 83.0527C101.493 82.979 101.629 82.9215 101.782 82.8802C101.937 82.8389 102.115 82.8183 102.313 82.8183C102.576 82.8183 102.828 82.8669 103.07 82.9643C103.311 83.0616 103.525 83.2076 103.711 83.4022C103.898 83.5969 104.046 83.8417 104.156 84.1367C104.266 84.4287 104.321 84.7693 104.321 85.1587C104.321 85.6453 104.269 86.0597 104.165 86.4019C104.064 86.7411 103.919 87.0183 103.73 87.2336C103.543 87.4489 103.317 87.6053 103.051 87.7026C102.785 87.7999 102.489 87.8486 102.162 87.8486C102 87.8486 101.849 87.8279 101.708 87.7866C101.568 87.7454 101.441 87.6923 101.328 87.6274C101.218 87.5595 101.123 87.4858 101.044 87.4062C100.964 87.3236 100.905 87.2439 100.865 87.1673H100.846V89.5696H100.003V82.9643ZM100.828 85.3578C100.828 85.6144 100.854 85.8518 100.906 86.0701C100.958 86.2854 101.037 86.4727 101.144 86.6319C101.254 86.7912 101.39 86.9166 101.552 87.008C101.717 87.0965 101.911 87.1407 102.135 87.1407C102.367 87.1407 102.567 87.0965 102.735 87.008C102.906 86.9166 103.047 86.7912 103.157 86.6319C103.267 86.4727 103.348 86.2854 103.4 86.0701C103.452 85.8518 103.478 85.6144 103.478 85.3578C103.478 85.0894 103.452 84.8431 103.4 84.6189C103.348 84.3947 103.267 84.2016 103.157 84.0393C103.047 83.8771 102.906 83.7518 102.735 83.6633C102.567 83.5718 102.367 83.5261 102.135 83.5261C101.911 83.5261 101.717 83.5718 101.552 83.6633C101.39 83.7518 101.254 83.8771 101.144 84.0393C101.037 84.2016 100.958 84.3947 100.906 84.6189C100.854 84.8431 100.828 85.0894 100.828 85.3578Z" fill="#1D2534"/>
<path d="M108.985 85.3268C108.985 85.0643 108.954 84.8239 108.893 84.6056C108.832 84.3844 108.741 84.1942 108.618 84.0349C108.496 83.8756 108.345 83.7518 108.164 83.6633C107.987 83.5718 107.781 83.5261 107.546 83.5261C107.31 83.5261 107.104 83.5718 106.927 83.6633C106.75 83.7518 106.6 83.8756 106.478 84.0349C106.355 84.1942 106.264 84.3844 106.203 84.6056C106.141 84.8239 106.111 85.0643 106.111 85.3268C106.111 85.5922 106.141 85.837 106.203 86.0612C106.264 86.2824 106.355 86.4727 106.478 86.6319C106.6 86.7912 106.75 86.9166 106.927 87.008C107.104 87.0965 107.31 87.1407 107.546 87.1407C107.781 87.1407 107.987 87.0965 108.164 87.008C108.345 86.9166 108.496 86.7912 108.618 86.6319C108.741 86.4727 108.832 86.2824 108.893 86.0612C108.954 85.837 108.985 85.5922 108.985 85.3268ZM109.828 85.3268C109.828 85.7161 109.777 86.0671 109.673 86.3797C109.569 86.6894 109.419 86.9534 109.223 87.1717C109.028 87.3899 108.788 87.5581 108.504 87.676C108.223 87.7911 107.903 87.8486 107.546 87.8486C107.188 87.8486 106.869 87.7911 106.588 87.676C106.306 87.5581 106.068 87.3899 105.873 87.1717C105.677 86.9534 105.527 86.6894 105.423 86.3797C105.319 86.0671 105.267 85.7161 105.267 85.3268C105.267 84.9434 105.319 84.5968 105.423 84.2871C105.527 83.9774 105.677 83.7134 105.873 83.4952C106.068 83.2769 106.306 83.1102 106.588 82.9952C106.869 82.8772 107.188 82.8183 107.546 82.8183C107.903 82.8183 108.223 82.8772 108.504 82.9952C108.788 83.1102 109.028 83.2769 109.223 83.4952C109.419 83.7134 109.569 83.9774 109.673 84.2871C109.777 84.5968 109.828 84.9434 109.828 85.3268Z" fill="#1D2534"/>
<path d="M111.064 82.9643H111.907V84.8755H114.199V82.9643H115.047V87.7026H114.199V85.5834H111.907V87.7026H111.064V82.9643Z" fill="#1D2534"/>
<path d="M116.571 82.9643H117.414V86.5965H117.433L119.844 82.9643H120.811V87.7026H119.963V84.0703H119.945L117.538 87.7026H116.571V82.9643Z" fill="#1D2534"/>
<path d="M122.335 82.9643H123.178V85.256L125.658 82.9643H126.763L124.457 85.0569L126.8 87.7026H125.713L123.797 85.5524L123.178 86.0524V87.7026H122.335V82.9643Z" fill="#1D2534"/>
<path d="M127.76 82.9643H128.603V86.5965H128.622L131.033 82.9643H132V87.7026H131.152V84.0703H131.134L128.727 87.7026H127.76V82.9643Z" fill="#1D2534"/>
</svg>
