<svg width="553" height="199" viewBox="0 0 553 199" fill="none" xmlns="http://www.w3.org/2000/svg">
<path d="M164.17 180.079V146.548L150.177 180.079H148.082L134.15 146.548V180.079H129.034V139.782H136.37L149.13 170.473L161.951 139.782H169.287V180.079H164.17Z" fill="#1D2534"/>
<path d="M178.721 161.19C178.721 148.965 186.808 139.782 198.847 139.782C210.825 139.782 218.973 148.965 218.973 161.19C218.973 173.414 210.825 182.598 198.847 182.598C186.808 182.598 178.721 173.414 178.721 161.19ZM213.744 161.19C213.744 151.509 207.907 144.373 198.847 144.373C189.726 144.373 183.95 151.509 183.95 161.19C183.95 170.808 189.726 178.006 198.847 178.006C207.907 178.006 213.744 170.808 213.744 161.19Z" fill="#1D2534"/>
<path d="M228.407 180.079V139.782H247.2C254.539 139.782 259.032 144.011 259.032 150.052C259.032 155.127 255.489 158.511 251.629 159.296C256.121 159.961 259.854 164.371 259.854 169.204C259.854 175.669 255.362 180.079 247.643 180.079H228.407ZM233.659 157.242H246.314C251.059 157.242 253.59 154.463 253.59 150.777C253.59 147.152 251.059 144.252 246.314 144.252H233.659V157.242ZM233.659 175.608H246.567C251.502 175.608 254.413 172.95 254.413 168.66C254.413 164.975 251.755 161.713 246.567 161.713H233.659V175.608Z" fill="#1D2534"/>
<path d="M269.288 180.079V139.782H274.949V180.079H269.288Z" fill="#1D2534"/>
<path d="M284.383 180.079V139.782H289.829V175.608H310.17V180.079H284.383Z" fill="#1D2534"/>
<path d="M319.604 180.079V139.782H348.535V144.252H325.099V157.242H348.071V161.713H325.099V175.608H348.535V180.079H319.604Z" fill="#1D2534"/>
<path d="M0 120.892V27.0748H43.9322C64.3494 27.0748 75.4733 40.8591 75.4733 57.3158C75.4733 73.6319 64.2086 87.2755 43.9322 87.2755H19.9948V120.892H0ZM55.0561 57.1752C55.0561 49.4391 49.1421 44.2348 41.2568 44.2348H19.9948V70.1155H41.2568C49.1421 70.1155 55.0561 65.0519 55.0561 57.1752Z" fill="#1D2534"/>
<path d="M134.893 120.892L116.431 87.2755H101.775V120.892H81.7627V27.0748H125.733C145.322 27.0748 157.301 39.8745 157.301 57.3158C157.301 73.9132 146.872 82.7745 136.725 85.1657L157.865 120.892H134.893ZM136.866 57.1752C136.866 49.2985 130.806 44.2348 122.773 44.2348H101.775V70.1155H122.773C130.806 70.1155 136.866 65.0519 136.866 57.1752Z" fill="#1D2534"/>
<path d="M164.154 120.892V27.0748H183.023V120.892H164.154Z" fill="#1D2534"/>
<path d="M189.312 120.892V27.0748H226.041C255.228 27.0748 275.478 45.7821 275.478 74.0539C275.478 102.326 255.228 120.892 226.041 120.892H189.312ZM209.143 103.31H226.041C244.475 103.31 255.228 89.948 255.228 74.0539C255.228 57.4565 245.173 44.6568 226.041 44.6568H209.143V103.31Z" fill="#1D2534"/>
<path d="M281.767 120.892V27.0748H347.806V44.2348H301.634V64.6299H346.826V81.7899H301.634V103.592H347.806V120.892H281.767Z" fill="#1D2534"/>
<path d="M403.627 172.967C397.905 168.73 389.112 158.612 389.507 143.882C389.725 135.746 393.294 128.638 397.699 123.042C402.096 117.455 407.301 113.41 410.742 111.399C415.429 109.169 429.472 102.538 448.31 93.7736L448.322 93.7681L448.334 93.762C453.995 90.7616 457.376 88.9072 459.302 87.8074C460.264 87.2585 460.871 86.8934 461.22 86.6658C461.387 86.5569 461.52 86.4634 461.603 86.3885C461.625 86.3687 461.656 86.339 461.686 86.3017L461.688 86.3C461.704 86.2793 461.788 86.1765 461.804 86.0214C461.815 85.9184 461.796 85.782 461.703 85.6596C461.616 85.5467 461.507 85.5 461.442 85.4808C461.33 85.4475 461.233 85.4614 461.208 85.465L461.207 85.4652L461.133 85.4757L461.066 85.5071C459.066 86.4416 453.995 87.6029 449.759 84.8467C445.571 82.1214 445.562 77.5022 446.086 75.5347L446.089 75.5219L446.092 75.5089C446.264 74.6902 446.987 72.6788 448.44 71.3284C448.652 71.1312 448.84 70.9483 449.015 70.7792C449.689 70.1237 450.15 69.6768 450.948 69.4156C451.959 69.085 453.548 69.0602 456.748 69.6487C463.417 70.875 470.179 75.4831 473.719 78.4289L474.496 77.8405C473.393 75.3753 471.308 71.7106 468.617 68.7086C466.851 66.7383 464.777 65.0018 462.51 64.1195C465.768 63.8468 469.862 63.5154 472.969 63.2674L472.983 63.2662L472.998 63.2643C476.498 62.7825 485.192 64.3358 491.081 74.8178L491.164 74.9643L491.318 75.0313C492.043 75.3471 493.158 75.696 494.376 76.0768C494.988 76.2683 495.626 76.4679 496.254 76.6754C498.186 77.3147 500.03 78.0317 501.053 78.8515C501.094 78.8844 501.151 78.9557 501.179 79.1492C501.208 79.3489 501.198 79.624 501.148 79.9907C501.087 80.4342 500.983 80.9318 500.862 81.5028C500.778 81.9015 500.686 82.3361 500.597 82.813L500.538 83.128L500.8 83.3132L522.046 98.351L517.987 101.718L514.554 99.2995L514.425 99.2083H514.266H505.527H503.724L505.27 100.137L514.689 105.795L513.773 111.432L513.769 111.453L513.768 111.474C513.768 111.471 513.768 111.472 513.766 111.476C513.758 111.498 513.718 111.611 513.551 111.777C513.366 111.961 513.052 112.18 512.558 112.361C511.57 112.724 509.876 112.93 507.147 112.41C504.237 111.855 502.732 111.636 501.301 111.672C500.213 111.7 499.168 111.877 497.592 112.144C497.119 112.224 496.599 112.313 496.015 112.407L495.975 112.414L495.936 112.427C495.793 112.475 495.676 112.576 495.615 112.632C495.536 112.704 495.454 112.793 495.374 112.89C495.213 113.084 495.039 113.335 494.897 113.606C494.759 113.87 494.632 114.188 494.601 114.505C494.569 114.832 494.636 115.226 494.973 115.507C495.114 115.624 495.311 115.69 495.458 115.733C495.629 115.783 495.842 115.829 496.082 115.872C496.564 115.959 497.198 116.042 497.927 116.117C499.387 116.268 501.262 116.395 503.146 116.473C505.03 116.551 506.933 116.582 508.448 116.54C509.204 116.52 509.873 116.481 510.398 116.419C510.659 116.388 510.895 116.35 511.092 116.304C511.116 116.298 511.14 116.292 511.165 116.285C511.159 116.333 511.152 116.385 511.143 116.44C511.045 117.063 510.77 117.999 510.356 118.972C509.942 119.944 509.406 120.915 508.806 121.624C508.191 122.352 507.599 122.702 507.076 122.678C506.992 122.674 506.899 122.67 506.799 122.666C505.07 122.59 500.998 122.412 497.102 121.425C495.041 120.903 493.061 120.162 491.514 119.112C489.972 118.065 488.887 116.733 488.539 115.023C487.778 111.281 487.616 109.634 487.606 108.728C487.602 108.369 487.621 108.128 487.64 107.896C487.645 107.836 487.649 107.778 487.654 107.718C487.675 107.411 487.681 107.109 487.611 106.65C487.589 106.504 487.546 106.314 487.432 106.161C487.369 106.075 487.268 105.982 487.123 105.935C486.975 105.887 486.836 105.904 486.729 105.941C486.544 106.006 486.411 106.145 486.333 106.236C486.241 106.343 486.151 106.475 486.065 106.615C485.726 107.168 485.301 108.094 484.862 109.061C484.829 109.134 484.796 109.207 484.763 109.28C484.346 110.199 483.912 111.157 483.5 111.942C483.278 112.365 483.069 112.725 482.879 112.995C482.676 113.285 482.543 113.4 482.49 113.426C482.266 113.538 481.994 113.605 481.59 113.703C481.483 113.729 481.368 113.758 481.242 113.79C480.666 113.935 479.96 114.141 479.12 114.552C477.605 115.295 475.705 116.685 473.33 119.525C473.348 119.379 473.367 119.222 473.388 119.057C473.488 118.252 473.614 117.235 473.702 116.135C473.825 114.61 473.881 112.891 473.698 111.27C473.523 109.708 473.121 108.187 472.303 107.023C471.969 103.849 471.908 102.112 472.04 100.656C472.147 99.4816 472.378 98.4853 472.714 97.0407C472.802 96.6592 472.898 96.2465 473.001 95.7911C473.048 95.5806 473.086 95.4014 473.095 95.2874C473.098 95.2599 473.102 95.2034 473.094 95.1401C473.09 95.1106 473.079 95.0435 473.042 94.9685C473.002 94.89 472.903 94.7481 472.705 94.7015C472.521 94.6581 472.379 94.7286 472.324 94.762C472.264 94.7986 472.223 94.8399 472.205 94.8602C472.166 94.9029 472.138 94.9465 472.123 94.9701C472.065 95.0651 471.99 95.2241 471.91 95.4018C471.836 95.5642 471.745 95.7704 471.638 96.0131L471.584 96.1362C471.059 97.3264 470.155 99.3592 468.831 101.872C466.187 106.888 461.874 113.8 455.577 119.709C449.457 122.846 440.387 128.088 432.499 134.008C428.542 136.979 424.87 140.129 422.016 143.279C419.962 145.546 418.31 147.835 417.289 150.076C417.542 139.604 424.731 118.56 453.352 101.247L452.912 100.353C440.456 105.207 423.081 114.734 411.465 127.567C405.655 133.986 401.263 141.258 399.673 149.208C398.19 156.627 399.156 164.599 403.627 172.967ZM460.934 85.6455C460.934 85.6456 460.934 85.6457 460.933 85.6458L460.934 85.6455ZM472.099 95.203C472.099 95.2035 472.099 95.2041 472.099 95.2047L472.099 95.203ZM511.638 116.09C511.638 116.09 511.636 116.091 511.633 116.093C511.636 116.091 511.637 116.09 511.638 116.09ZM469.502 131.004C483.022 125.823 492.224 127.013 495.479 128.314C494.853 130.014 493.352 131.865 491.62 133.546C489.772 135.339 487.729 136.875 486.41 137.743L459.395 151.612C444.212 158.517 435.589 166.592 430.771 174.187C426.776 180.486 425.415 186.428 425.08 191.048C421.809 181.147 421.591 172.977 423.361 166.186C425.278 158.83 429.541 153.041 434.886 148.395C444.13 140.359 456.538 135.793 465.504 132.494C466.933 131.968 468.274 131.475 469.502 131.004Z" fill="#1D2534" stroke="#1D2534"/>
<path d="M449.405 79.1889L449.408 79.2345L449.419 79.2787C449.809 80.8157 451.174 82.6861 453.918 83.5057C456.651 84.322 460.699 84.0832 466.472 81.5579L466.272 80.5998C461.967 80.5998 459.364 79.5625 458.39 78.9532C459.011 76.6672 458.507 75.0676 457.486 74.029C456.453 72.9774 454.978 72.5934 453.949 72.5459L453.949 72.5459L453.942 72.5457C452.949 72.5146 452.135 72.7823 451.485 73.2565C450.843 73.7258 450.39 74.3762 450.076 75.0718C449.452 76.4522 449.332 78.097 449.405 79.1889Z" fill="white" stroke="#1D2534"/>
<path d="M404.132 90.7552C420.377 85.1395 434.649 83.8117 438.81 82.2842C439.642 83.2563 439.522 89.8399 404.132 102.837C381.777 111.047 377.001 142.793 372.932 140.155C369.709 115.97 379.458 99.2847 404.132 90.7552Z" fill="#1D2534" stroke="#1D2534"/>
<path d="M453.44 187.756C448.53 191.305 445.134 194.5 443.1 197.016C443.945 192.863 445.862 188.363 448.038 184.264C450.573 179.491 453.435 175.308 455.291 172.922L455.326 172.877L455.35 172.826C455.471 172.565 455.852 172.048 456.645 171.258C457.424 170.483 458.566 169.477 460.162 168.24C463.353 165.765 468.338 162.375 475.815 158.05C490.52 149.544 498.648 138.035 501.094 132.92L506.985 134.272C507.343 144.566 503.044 153.169 497.346 159.79C491.573 166.498 484.389 171.142 479.247 173.407C468.05 178.339 459.558 183.332 453.44 187.756Z" fill="#1D2534" stroke="#1D2534"/>
<path d="M501.681 186.325C491.809 190.234 481.264 191.851 473.478 192.185C493.616 185.646 504.831 173.775 510.61 161.355C516.43 148.848 516.724 135.818 515.13 127.174C530.501 137.728 530.119 154.633 527.94 161.907C523.677 174.15 513.174 181.774 501.681 186.325ZM540.397 152.294C541.138 143.108 537.615 125.171 518.688 117.545C519.948 115.896 522.133 112.403 523.631 107.893C529.167 108.645 540.941 112.982 546.691 124.922C549.61 130.982 548.911 137.358 546.911 142.558C545.912 145.156 544.592 147.447 543.254 149.238C542.256 150.573 541.262 151.611 540.397 152.294Z" fill="#1D2534" stroke="#1D2534"/>
<path d="M478.798 83.3866L478.861 84.3761C482.094 84.5919 486.416 86.1316 490.548 88.0057C494.664 89.8727 498.529 92.0424 500.825 93.4675L501.589 93.9415V93.0426C501.589 92.7523 501.478 92.4536 501.345 92.1857C501.207 91.907 501.016 91.6057 500.797 91.2962C500.361 90.6777 499.779 89.9762 499.201 89.2848C499.151 89.2256 499.102 89.1665 499.053 89.1075C498.518 88.4692 497.993 87.8425 497.568 87.2748C497.088 86.6342 496.795 86.1448 496.719 85.8391C496.53 85.0831 496.563 84.5302 496.639 84.1039C496.672 83.9195 496.713 83.7598 496.753 83.6003C496.761 83.5681 496.769 83.536 496.777 83.5036C496.821 83.3275 496.873 83.1142 496.873 82.9051C496.873 82.7591 496.853 82.5729 496.75 82.4098C496.621 82.2046 496.407 82.1089 496.196 82.1174C496.028 82.1241 495.893 82.1948 495.817 82.2419C495.731 82.2947 495.658 82.3573 495.603 82.4129L495.951 82.7607L495.603 82.4129L494.542 83.4751C493.828 82.9467 492.843 82.5882 491.915 82.3451C490.957 82.0943 489.987 81.9483 489.275 81.8803C489.17 81.5178 489.019 81.0983 488.832 80.7666C488.712 80.5558 488.532 80.2966 488.272 80.1576C488.127 80.0802 487.947 80.0349 487.748 80.0713C487.555 80.1069 487.4 80.21 487.28 80.3299L487.273 80.337L487.266 80.3443C487 80.6325 486.507 80.9506 485.824 81.2748C485.152 81.5932 484.345 81.8964 483.494 82.1727C481.794 82.7253 479.962 83.1581 478.798 83.3866Z" fill="white" stroke="#1D2534"/>
<path d="M406.107 67.8112C404.72 68.3667 397.699 65.931 394.507 64.7261C393.772 64.449 393.166 63.9854 393.351 63.7077C393.304 63.0597 393.684 61.6802 395.57 61.3469C397.928 60.9303 405.829 64.3394 406.8 65.0338C407.569 65.5837 407.405 66.5916 407.222 67.0406C407.22 67.045 407.219 67.0495 407.217 67.0541C407.134 67.2434 406.847 67.5149 406.107 67.8112Z" fill="#FF4F12"/>
<path d="M411.528 56.5955C410.141 57.151 395.57 47.5063 392.108 45.0066C389.894 43.4083 389.426 42.9236 389.611 42.6459C389.565 41.9978 389.944 40.6185 391.83 40.2852C394.189 39.8686 411.25 53.1238 412.221 53.8181C412.99 54.368 412.826 55.3759 412.643 55.8249C412.641 55.8294 412.64 55.8339 412.638 55.8384C412.555 56.0277 412.268 56.2993 411.528 56.5955Z" fill="#FF4F12"/>
<path d="M426.642 39.3758C425.255 39.9313 417.77 29.8699 413.886 25.565C412.056 23.5371 409.961 21.26 410.146 20.9822C410.1 20.3342 410.335 17.7049 412.221 17.3717C414.58 16.955 426.365 35.9041 427.336 36.5984C428.105 37.1483 427.94 38.1562 427.757 38.6052C427.756 38.6097 427.754 38.6142 427.752 38.6188C427.67 38.808 427.382 39.0796 426.642 39.3758Z" fill="#FF4F12"/>
<path d="M418.458 47.0433C417.071 47.5988 412.221 42.6459 412.221 42.6459C412.221 42.6459 410.881 41.9053 411.066 41.6275C411.019 40.9795 411.369 39.2668 413.285 39.2668C415.689 39.2668 418.181 43.5716 419.152 44.266C419.921 44.8159 419.756 45.8237 419.573 46.2727C419.572 46.2772 419.57 46.2817 419.568 46.2863C419.486 46.4755 419.198 46.7471 418.458 47.0433Z" fill="#FF4F12"/>
<path d="M435.289 33.3417C433.902 33.8972 431.919 29.87 431.919 29.87C431.919 29.87 430.578 28.5738 430.763 28.2961C430.717 27.648 431.113 27.0926 433.029 27.0926C435.289 27.0926 435.011 29.8699 435.982 30.5643C436.751 31.1142 436.587 32.1221 436.404 32.5711C436.402 32.5755 436.4 32.58 436.398 32.5846C436.316 32.7739 436.029 33.0454 435.289 33.3417Z" fill="#FF4F12"/>
<path d="M443.565 29.2524C440.375 25.3636 439.409 18.4832 437.184 14.1156C435.944 11.6813 435.098 8.14419 435.283 7.86645C435.237 7.2184 435.977 5.08909 438.468 6.06115C440.699 6.93171 445.326 25.1387 445.646 26.2896C446.062 27.7874 446.251 27.8473 446.068 28.2963C446.066 28.3008 446.064 28.3053 446.062 28.3099C445.98 28.4992 444.071 29.8688 443.565 29.2524Z" fill="#FF4F12"/>
<path d="M463.829 24.9967C460.638 21.1079 463.04 13.9892 462.164 9.16552C461.609 6.11042 462.534 2.22207 462.719 1.94433C463.818 0.139031 464.518 -0.85683 466.47 0.972223C468.545 2.9164 465.992 21.5249 466.048 21.7262C466.464 23.2241 466.653 23.2839 466.47 23.7329C466.468 23.7374 466.466 23.742 466.464 23.7465C466.048 24.705 464.335 25.6131 463.829 24.9967Z" fill="#FF4F12"/>
<path d="M485.687 28.3567C482.449 28.7699 486.059 17.6638 486.791 16.2887C490.126 10.026 488.6 11.5567 490.126 6.97405C491.224 5.16874 492.937 5.14499 494.89 6.97405C496.965 8.91822 491.369 18.2329 491.369 18.2329C489.982 23.2322 488.558 26.1837 488.376 26.6327C488.374 26.6372 488.372 26.6417 488.37 26.6463C487.954 27.6047 486.477 28.2558 485.687 28.3567Z" fill="#FF4F12"/>
<path d="M454.946 26.6768C453.558 27.2322 452.587 24.1771 452.587 24.1771C452.587 24.1771 451.663 20.6591 451.848 20.3813C451.801 19.7333 452.198 18.9001 454.113 18.9001C456.373 18.9001 455.223 23.0523 456.194 23.7466C456.963 24.2965 456.798 25.3044 456.616 25.7534C456.614 25.7579 456.612 25.7624 456.61 25.7669C456.528 25.9562 455.685 26.3805 454.946 26.6768Z" fill="#FF4F12"/>
<path d="M475.455 26.7881C474.068 27.3435 474.623 21.3996 474.623 21.3996C474.623 21.3996 474.577 19.6948 474.762 19.4171C474.715 18.769 475.502 18.6222 477.417 18.6222C479.677 18.6222 478.686 20.8994 478.686 22.094C478.686 23.7329 476.753 25.5684 476.571 26.0174C476.569 26.0219 476.567 26.0264 476.565 26.031C476.483 26.2202 476.195 26.4918 475.455 26.7881Z" fill="#FF4F12"/>
<path d="M494.895 33.7988C493.508 34.3543 494.34 30.4798 494.34 30.4798C494.34 30.4798 495.82 27.7024 496.005 27.4247C496.56 26.7303 497.115 26.6863 497.953 26.7304C500.21 26.849 499.599 29.0687 499.223 30.2021C498.502 32.3703 496.193 32.5791 496.011 33.0282C496.009 33.0326 496.007 33.0371 496.005 33.0417C495.923 33.231 495.635 33.5025 494.895 33.7988Z" fill="#FF4F12"/>
<path d="M503.074 38.4173C499.836 38.8306 506.087 31.8148 506.819 30.4397C510.154 24.177 512.449 24.9967 515.836 19.4307C516.934 17.6254 518.647 17.6016 520.599 19.4307C522.674 21.3748 515.009 28.2961 515.009 28.2961C512.789 31.5371 510.72 31.0346 506.323 37.6657C506.321 37.6702 506.319 37.6747 506.317 37.6793C505.901 38.6377 503.864 38.3165 503.074 38.4173Z" fill="#FF4F12"/>
<path d="M511.951 47.3535C510.563 47.909 511.396 44.0345 511.396 44.0345C511.396 44.0345 513.344 41.5357 516.278 40.2852C517.644 39.5909 518.061 39.5915 518.226 39.5909C520.487 39.5828 520.244 42.1243 519.17 42.6459C515.836 44.266 513.249 46.1339 513.066 46.5829C513.064 46.5874 513.062 46.5919 513.06 46.5964C512.978 46.7857 512.69 47.0573 511.951 47.3535Z" fill="#FF4F12"/>
<path d="M519.176 55.6099C514.038 56.2656 521.766 50.4646 523.054 49.5901C531.238 44.0345 530.462 44.4379 536.329 41.614C540.532 39.5909 540.035 39.1556 541.093 41.614C542.613 45.1463 534.568 48.2014 534.568 48.2014C529.749 50.0896 529.851 50.8399 522.425 54.8582C522.423 54.8627 522.421 54.8673 522.419 54.8718C522.003 55.8302 519.966 55.509 519.176 55.6099Z" fill="#FF4F12"/>
<path d="M524.685 67.9673C523.332 69.232 524.13 64.6483 524.13 64.6483C524.13 64.6483 527.098 61.6719 533.042 61.5933C533.042 61.5933 535.497 61.5939 535.663 61.5933C537.923 61.5852 537.68 64.1267 536.606 64.6483C533.272 66.2684 531.128 66.4069 527.909 67.0101C527.908 67.0145 525.797 67.2056 525.795 67.2102C525.412 67.2878 525.268 67.423 524.685 67.9673Z" fill="#FF4F12"/>
<path d="M438.766 68.6255C425.228 76.2911 417.959 77.4668 416.017 77.0965C414.353 67.9311 433.634 28.0756 473.584 34.6025C505.543 39.824 514.736 65.9407 515.337 78.3464L507.569 80.0129C507.569 77.2355 504.425 73.9487 502.852 72.6526C497.637 71.0972 495.131 69.3198 494.53 68.6255C489.869 63.6262 485.929 60.8025 484.542 60.0155C474.416 55.7106 455.69 59.0435 438.766 68.6255Z" fill="#FF4F12"/>
</svg>
