<svg width="998" height="369" viewBox="0 0 998 369" fill="none" xmlns="http://www.w3.org/2000/svg">
<rect width="998" height="369" fill="white"/>
<path d="M561.441 311.558V235.371H615.861V243.824H571.777V268.382H614.989V276.834H571.777V303.106H615.861V311.558H561.441Z" fill="black"/>
<path d="M501.58 311.558V235.371H511.924V303.106H550.557V311.558H501.58Z" fill="black"/>
<path d="M474.371 311.558V235.371H485.255V311.558H474.371Z" fill="black"/>
<path d="M398.186 311.558V235.371H433.958C447.929 235.371 456.481 243.367 456.481 254.789C456.481 264.384 449.736 270.78 442.389 272.265C450.94 273.522 458.047 281.86 458.047 290.998C458.047 303.22 449.495 311.558 434.801 311.558H398.186ZM408.182 268.382H432.271C441.305 268.382 446.123 263.128 446.123 256.16C446.123 249.307 441.305 243.824 432.271 243.824H408.182V268.382ZM408.182 303.106H432.753C442.148 303.106 447.688 298.08 447.688 289.97C447.688 283.002 442.63 276.834 432.753 276.834H408.182V303.106Z" fill="black"/>
<path d="M305.672 276.186C305.672 252.88 320.978 235.371 343.765 235.371C366.437 235.371 381.859 252.88 381.859 276.186C381.859 299.491 366.437 317 343.765 317C320.978 317 305.672 299.491 305.672 276.186ZM371.961 276.186C371.961 257.73 360.913 244.126 343.765 244.126C326.502 244.126 315.569 257.73 315.569 276.186C315.569 294.523 326.502 308.246 343.765 308.246C360.913 308.246 371.961 294.523 371.961 276.186Z" fill="black"/>
<path d="M279.663 311.558V248.164L253.179 311.558H249.212L222.844 248.164V311.558H213.16V235.371H227.044L251.195 293.397L275.463 235.371H289.347V311.558H279.663Z" fill="black"/>
<path d="M486.059 224.488V224.988H486.559H614.988H615.488V224.488V191.02V190.52H614.988H525.696V149.345H613.083H613.583V148.845V115.649V115.149H613.083H525.696V76.6957H614.988H615.488V76.1957V43V42.5H614.988H486.559H486.059V43V224.488Z" fill="black" stroke="white"/>
<path d="M328.85 224.488V224.988H329.35H400.911C429.45 224.988 453.659 215.974 470.738 200.059C487.82 184.14 497.732 161.352 497.732 133.88C497.732 106.408 487.82 83.552 470.739 67.5657C453.66 51.5823 429.451 42.5 400.911 42.5H329.35H328.85V43V224.488ZM400.911 189.976H368.487V77.5119H400.911C419.433 77.5119 433.51 83.66 442.959 93.7475C452.412 103.84 457.279 117.926 457.279 133.88C457.279 149.14 452.08 163.162 442.45 173.365C432.824 183.563 418.742 189.976 400.911 189.976Z" fill="black" stroke="white"/>
<path d="M286.834 224.488V224.988H287.334H325.972H326.472V224.488V43V42.5H325.972H287.334H286.834V43V224.488Z" fill="black" stroke="white"/>
<path d="M247.284 224.728L247.426 224.988H247.723H292.074H292.95L292.505 224.233L252.033 155.702C271.613 150.803 291.486 133.507 291.486 101.501C291.486 84.5141 285.662 69.7554 275.046 59.2426C264.429 48.7291 249.059 42.5 230.036 42.5H145.143H144.643V43V224.488V224.988H145.143H183.78H184.28V224.488V159.957H211.782L247.284 224.728ZM224.322 76.6957C231.973 76.6957 238.651 79.111 243.41 83.3706C248.163 87.6254 251.032 93.7461 251.032 101.228C251.032 108.711 248.163 114.831 243.41 119.086C238.651 123.346 231.973 125.761 224.322 125.761H184.28V76.6957H224.322Z" fill="black" stroke="white"/>
<path d="M7.5 224.488V224.988H8H46.6376H47.1376V224.488V159.957H92.8938C112.602 159.957 127.974 153.316 138.419 142.665C148.86 132.017 154.343 117.397 154.343 101.501C154.343 85.4708 148.93 70.7153 138.523 59.9643C128.112 49.2094 112.739 42.5 92.8938 42.5H8H7.5V43V224.488ZM87.724 76.6957C102.724 76.6957 113.889 86.5771 113.889 101.228C113.889 108.715 111.086 114.836 106.433 119.09C101.777 123.347 95.2362 125.761 87.724 125.761H47.1376V76.6957H87.724Z" fill="black" stroke="white"/>
<path d="M687.685 229.808C686.979 256.098 704.447 273.256 713.269 278.55C679.569 221.736 750.101 176.802 789.58 161.437C739.647 191.608 730.398 228.999 732.016 243.923C736.25 225.397 774.582 202.018 793.991 192.094C814.281 173.126 821.717 147.696 820.457 153.277C818.913 160.114 818.251 161.216 819.354 171.582C824.427 178.419 819.563 195.181 821.118 193.196C829.762 182.169 837.219 183.272 839.424 182.169C841.63 181.066 848.246 168.054 849.349 170.48C850.452 172.906 842.732 172.244 845.158 184.154C847.585 196.064 870.522 196.725 875.374 196.946C880.226 197.166 884.196 183.713 882.211 185.036C880.226 186.359 859.274 183.272 857.95 182.169C856.892 181.287 857.509 180.772 857.95 180.625C866.111 179.302 866.111 178.861 875.374 180.625C884.229 182.312 886.769 179.375 886.843 178.419L888.387 168.936L872.948 159.673H886.843L892.798 163.863L900.517 157.467L865.89 132.986C866.552 129.457 867.434 126.81 866.331 125.928C862.819 123.118 854.054 121.223 850.672 119.753C841.144 102.814 827 100.197 821.118 101.006C809.135 101.962 787.903 103.697 798.843 102.991C809.782 102.285 819.427 117.547 822.883 125.267C817.222 120.561 806.341 113.136 795.534 111.151C785.339 109.279 784.727 111.151 781.64 114.018C779.17 116.312 777.964 119.679 777.67 121.076C776.788 124.384 776.788 132.148 783.845 136.735C790.903 141.323 799.284 139.382 802.592 137.838C803.107 137.764 799.637 139.999 781.64 149.527C751.645 163.466 729.296 174.008 721.87 177.537C710.769 184.007 688.391 203.518 687.685 229.808Z" fill="black"/>
<path d="M815.384 208.635C837.969 199.989 853.172 202.386 857.95 204.665C856.186 210.841 847.217 217.972 842.953 220.765L799.945 242.82C751.865 264.655 745.616 293.768 745.69 308.986C719.444 238.409 787.153 219.442 815.384 208.635Z" fill="black"/>
<path d="M687.685 229.808C686.979 256.098 704.447 273.256 713.269 278.55C679.569 221.736 750.101 176.802 789.58 161.437C739.647 191.608 730.398 228.999 732.016 243.923C736.25 225.397 774.582 202.018 793.991 192.094C814.281 173.126 821.717 147.696 820.457 153.277C818.913 160.114 818.251 161.216 819.354 171.582C824.427 178.419 819.563 195.181 821.118 193.196C829.762 182.169 837.219 183.272 839.424 182.169C841.63 181.066 848.246 168.054 849.349 170.48C850.452 172.906 842.732 172.244 845.158 184.154C847.585 196.064 870.522 196.725 875.374 196.946C880.226 197.166 884.196 183.713 882.211 185.036C880.226 186.359 859.274 183.272 857.95 182.169C856.892 181.287 857.509 180.772 857.95 180.625C866.111 179.302 866.111 178.861 875.374 180.625C884.229 182.312 886.769 179.375 886.843 178.419L888.387 168.936L872.948 159.673H886.843L892.798 163.863L900.517 157.467L865.89 132.986C866.552 129.457 867.434 126.81 866.331 125.928C862.819 123.118 854.054 121.223 850.672 119.753C841.144 102.814 827 100.197 821.118 101.006C809.135 101.962 787.903 103.697 798.843 102.991C809.782 102.285 819.427 117.547 822.883 125.267C817.222 120.561 806.341 113.136 795.534 111.151C785.339 109.279 784.727 111.151 781.64 114.018C779.17 116.312 777.964 119.679 777.67 121.076C776.788 124.384 776.788 132.148 783.845 136.735C790.903 141.323 799.284 139.382 802.592 137.838C803.107 137.764 799.637 139.999 781.64 149.527C751.645 163.466 729.296 174.008 721.87 177.537C710.769 184.007 688.391 203.518 687.685 229.808Z" stroke="black"/>
<path d="M815.384 208.635C837.969 199.989 853.172 202.386 857.95 204.665C856.186 210.841 847.217 217.972 842.953 220.765L799.945 242.82C751.865 264.655 745.616 293.768 745.69 308.986C719.444 238.409 787.153 219.442 815.384 208.635Z" stroke="black"/>
<path d="M802.151 127.031C801.974 128.266 807.665 129.604 810.532 130.119C792.358 138.059 785.61 131.369 784.507 127.031C784.286 123.723 785.257 117.15 790.903 117.327C797.96 117.547 796.196 120.194 797.519 120.635C798.578 120.988 797.666 125.046 797.078 127.031H802.151Z" fill="black" stroke="black"/>
<path d="M711.731 145.453C737.56 136.535 760.253 134.426 766.869 132C768.192 133.544 768.001 144 711.731 164.641C676.188 177.68 668.594 228.1 662.125 223.91C657 185.5 672.5 159 711.731 145.453Z" fill="black" stroke="black"/>
<path d="M865.45 211.502L876.036 213.928C877.58 247.673 848.026 270.169 831.485 277.447C795.968 293.075 777.67 309.059 772.377 317.367C774.141 302.193 786.492 283.108 792.447 275.462C793.476 273.257 801.49 265.405 825.309 251.643C849.129 237.88 861.994 219.148 865.45 211.502Z" fill="black" stroke="black"/>
<path d="M816.266 307.442C886.842 287.681 892.87 228.632 887.063 201.577C913.529 218.516 912.941 246.717 909.338 258.7C895.576 298.223 841.556 307.663 816.266 307.442Z" fill="black"/>
<path d="M901.178 171.803C898.531 180.096 894.341 186.286 892.576 188.344C924.336 200.519 929.188 230.911 927.424 244.805C934.481 240.836 948.641 219.133 939.113 199.372C929.585 179.61 909.853 172.759 901.178 171.803Z" fill="black"/>
<path d="M816.266 307.442C886.842 287.681 892.87 228.632 887.063 201.577C913.529 218.516 912.941 246.717 909.338 258.7C895.576 298.223 841.556 307.663 816.266 307.442Z" stroke="black"/>
<path d="M901.178 171.803C898.531 180.096 894.341 186.286 892.576 188.344C924.336 200.519 929.188 230.911 927.424 244.805C934.481 240.836 948.641 219.133 939.113 199.372C929.585 179.61 909.853 172.759 901.178 171.803Z" stroke="black"/>
<path d="M830.602 134.53C841.188 135.236 858.538 144.528 865.89 149.086C865.89 146.881 858.832 140.485 858.17 137.838C857.509 135.192 858.391 133.868 858.391 132.986C858.391 132.28 857.95 132.545 857.729 132.765L855.524 134.971C853.583 133.03 848.687 132.251 846.481 132.104C846.187 130.854 845.379 128.575 844.496 129.457C842.379 131.751 834.351 133.795 830.602 134.53Z" fill="white" stroke="black"/>
<path d="M714.873 109.014C712.667 109.896 701.505 106.028 696.429 104.114C695.262 103.674 694.297 102.938 694.591 102.497C694.517 101.468 695.12 99.2769 698.12 98.7475C701.869 98.0859 714.432 103.5 715.976 104.603C717.198 105.476 716.937 107.077 716.646 107.79C716.643 107.797 716.64 107.804 716.637 107.812C716.507 108.112 716.049 108.544 714.873 109.014Z" fill="url(#paint0_linear_25_512)"/>
<path d="M723.492 91.2014C721.287 92.0836 698.12 76.7659 692.615 72.796C689.095 70.2575 688.351 69.4878 688.645 69.0467C688.571 68.0175 689.174 65.8268 692.174 65.2974C695.923 64.6358 723.051 85.6876 724.595 86.7904C725.818 87.6637 725.556 89.2644 725.265 89.9775C725.263 89.9846 725.26 89.9918 725.257 89.999C725.126 90.2996 724.668 90.7309 723.492 91.2014Z" fill="url(#paint1_linear_25_512)"/>
<path d="M747.523 63.8533C745.318 64.7355 733.417 48.7561 727.241 41.919C724.333 38.6983 721.001 35.0818 721.295 34.6407C721.222 33.6115 721.595 29.4357 724.595 28.9064C728.344 28.2447 747.082 58.3395 748.626 59.4422C749.849 60.3155 749.587 61.9163 749.297 62.6294C749.294 62.6365 749.291 62.6436 749.288 62.6509C749.157 62.9515 748.7 63.3828 747.523 63.8533Z" fill="url(#paint2_linear_25_512)"/>
<path d="M734.511 76.0307C732.305 76.9129 724.595 69.0467 724.595 69.0467C724.595 69.0467 722.463 67.8705 722.757 67.4294C722.683 66.4001 723.24 63.6801 726.286 63.6801C730.109 63.6801 734.07 70.517 735.614 71.6197C736.836 72.493 736.575 74.0937 736.284 74.8068C736.281 74.8139 736.278 74.8211 736.275 74.8283C736.144 75.1289 735.687 75.5602 734.511 76.0307Z" fill="url(#paint3_linear_25_512)"/>
<path d="M761.271 54.2699C759.065 55.1521 755.913 48.7561 755.913 48.7561C755.913 48.7561 753.781 46.6976 754.075 46.2565C754.002 45.2273 754.632 44.3451 757.678 44.3451C761.271 44.3451 760.83 48.7561 762.374 49.8588C763.596 50.7322 763.335 52.3329 763.044 53.046C763.042 53.0531 763.039 53.0602 763.035 53.0675C762.905 53.3681 762.447 53.7994 761.271 54.2699Z" fill="url(#paint4_linear_25_512)"/>
<path d="M774.431 47.7752C769.358 41.5991 767.823 30.6717 764.285 23.7351C762.313 19.869 760.968 14.2514 761.262 13.8103C761.189 12.7811 762.365 9.39933 766.326 10.9432C769.873 12.3258 777.23 41.2419 777.739 43.0698C778.4 45.4486 778.7 45.5437 778.409 46.2568C778.407 46.2639 778.404 46.2712 778.4 46.2784C778.27 46.579 775.235 48.7542 774.431 47.7752Z" fill="url(#paint5_linear_25_512)"/>
<path d="M806.649 41.0164C801.576 34.8403 805.395 23.5345 804.002 15.8735C803.12 11.0214 804.59 4.84597 804.884 4.40487C806.631 1.5377 807.744 -0.0439157 810.848 2.86097C814.148 5.94869 810.089 35.5026 810.178 35.8223C810.839 38.2011 811.139 38.2962 810.848 39.0093C810.845 39.0164 810.842 39.0237 810.839 39.0309C810.178 40.5531 807.453 41.9954 806.649 41.0164Z" fill="url(#paint6_linear_25_512)"/>
<path d="M841.403 46.3527C836.254 47.0091 841.994 29.3704 843.158 27.1865C848.46 17.2401 846.034 19.6712 848.46 12.393C850.207 9.52585 852.931 9.48813 856.035 12.393C859.334 15.4807 850.436 30.2742 850.436 30.2742C848.231 38.2141 845.968 42.9016 845.678 43.6147C845.675 43.6218 845.672 43.6291 845.669 43.6363C845.007 45.1585 842.659 46.1925 841.403 46.3527Z" fill="url(#paint7_linear_25_512)"/>
<path d="M792.525 43.6847C790.319 44.5669 788.775 39.7148 788.775 39.7148C788.775 39.7148 787.305 34.1275 787.599 33.6864C787.526 32.6571 788.156 31.3338 791.201 31.3338C794.795 31.3338 792.966 37.9283 794.51 39.0311C795.732 39.9044 795.471 41.5051 795.18 42.2182C795.177 42.2253 795.174 42.2324 795.171 42.2397C795.041 42.5403 793.701 43.2142 792.525 43.6847Z" fill="url(#paint8_linear_25_512)"/>
<path d="M825.135 43.8615C822.929 44.7437 823.811 35.3036 823.811 35.3036C823.811 35.3036 823.738 32.596 824.032 32.1549C823.958 31.1257 825.208 30.8926 828.254 30.8926C831.847 30.8926 830.272 34.5091 830.272 36.4063C830.272 39.0093 827.198 41.9245 826.908 42.6376C826.905 42.6447 826.902 42.6518 826.899 42.6591C826.768 42.9597 826.311 43.391 825.135 43.8615Z" fill="url(#paint9_linear_25_512)"/>
<path d="M856.043 54.9958C853.838 55.878 855.161 49.7246 855.161 49.7246C855.161 49.7246 857.514 45.3136 857.808 44.8725C858.69 43.7697 859.572 43.6999 860.906 43.7699C864.494 43.9582 863.523 47.4835 862.924 49.2837C861.778 52.7272 858.107 53.0588 857.817 53.7719C857.814 53.779 857.811 53.7862 857.808 53.7934C857.677 54.094 857.22 54.5253 856.043 54.9958Z" fill="url(#paint10_linear_25_512)"/>
<path d="M869.047 62.331C863.899 62.9873 873.838 51.8449 875.002 49.661C880.304 39.7146 883.953 41.0164 889.338 32.1765C891.084 29.3093 893.808 29.2716 896.912 32.1765C900.212 35.2642 888.023 46.2565 888.023 46.2565C884.495 51.4038 881.204 50.6057 874.213 61.1372C874.21 61.1443 874.207 61.1516 874.204 61.1588C873.543 62.681 870.304 62.1708 869.047 62.331Z" fill="url(#paint11_linear_25_512)"/>
<path d="M883.161 76.5234C880.955 77.4056 882.279 71.2522 882.279 71.2522C882.279 71.2522 885.377 67.2835 890.041 65.2974C892.214 64.1948 892.876 64.1958 893.139 64.1948C896.733 64.182 896.347 68.2184 894.64 69.0467C889.338 71.6197 885.225 74.5863 884.934 75.2995C884.931 75.3065 884.928 75.3137 884.925 75.3209C884.795 75.6215 884.337 76.0528 883.161 76.5234Z" fill="url(#paint12_linear_25_512)"/>
<path d="M894.649 89.636C886.48 90.6774 898.767 81.4644 900.815 80.0755C913.828 71.2522 912.593 71.8927 921.922 67.4078C928.605 64.1948 927.814 63.5035 929.496 67.4078C931.913 73.0178 919.121 77.87 919.121 77.87C911.46 80.8687 911.622 82.0604 899.815 88.4423C899.812 88.4493 899.809 88.4566 899.806 88.4638C899.144 89.986 895.906 89.4758 894.649 89.636Z" fill="url(#paint13_linear_25_512)"/>
<path d="M903.408 109.262C901.256 111.27 902.526 103.991 902.526 103.991C902.526 103.991 907.245 99.2636 916.695 99.1389C916.695 99.1389 920.598 99.1398 920.862 99.1389C924.456 99.126 924.07 103.162 922.363 103.991C917.061 106.564 913.652 106.784 908.535 107.742C908.532 107.749 905.176 108.052 905.173 108.059C904.565 108.183 904.335 108.397 903.408 109.262Z" fill="url(#paint14_linear_25_512)"/>
<path d="M766.801 110.307C745.275 122.482 733.718 124.349 730.63 123.761C727.984 109.204 758.64 45.9063 822.159 56.2722C872.974 64.565 887.589 106.043 888.545 125.746L876.194 128.393C876.194 123.982 871.195 118.761 868.696 116.703C860.403 114.233 856.418 111.41 855.462 110.307C848.052 102.367 841.788 97.8828 839.583 96.633C823.483 89.7959 793.708 95.0891 766.801 110.307Z" fill="url(#paint15_linear_25_512)"/>
<defs>
<linearGradient id="paint0_linear_25_512" x1="809.234" y1="1.31689" x2="809.429" y2="282.079" gradientUnits="userSpaceOnUse">
<stop stop-color="white"/>
<stop offset="1" stop-color="#4057DA"/>
</linearGradient>
<linearGradient id="paint1_linear_25_512" x1="809.234" y1="1.31689" x2="809.429" y2="282.079" gradientUnits="userSpaceOnUse">
<stop stop-color="white"/>
<stop offset="1" stop-color="#4057DA"/>
</linearGradient>
<linearGradient id="paint2_linear_25_512" x1="809.234" y1="1.31689" x2="809.429" y2="282.079" gradientUnits="userSpaceOnUse">
<stop stop-color="white"/>
<stop offset="1" stop-color="#4057DA"/>
</linearGradient>
<linearGradient id="paint3_linear_25_512" x1="809.234" y1="1.31689" x2="809.429" y2="282.079" gradientUnits="userSpaceOnUse">
<stop stop-color="white"/>
<stop offset="1" stop-color="#4057DA"/>
</linearGradient>
<linearGradient id="paint4_linear_25_512" x1="809.234" y1="1.31689" x2="809.429" y2="282.079" gradientUnits="userSpaceOnUse">
<stop stop-color="white"/>
<stop offset="1" stop-color="#4057DA"/>
</linearGradient>
<linearGradient id="paint5_linear_25_512" x1="809.234" y1="1.31689" x2="809.429" y2="282.079" gradientUnits="userSpaceOnUse">
<stop stop-color="white"/>
<stop offset="1" stop-color="#4057DA"/>
</linearGradient>
<linearGradient id="paint6_linear_25_512" x1="809.234" y1="1.31689" x2="809.429" y2="282.079" gradientUnits="userSpaceOnUse">
<stop stop-color="white"/>
<stop offset="1" stop-color="#4057DA"/>
</linearGradient>
<linearGradient id="paint7_linear_25_512" x1="809.234" y1="1.31689" x2="809.429" y2="282.079" gradientUnits="userSpaceOnUse">
<stop stop-color="white"/>
<stop offset="1" stop-color="#4057DA"/>
</linearGradient>
<linearGradient id="paint8_linear_25_512" x1="809.234" y1="1.31689" x2="809.429" y2="282.079" gradientUnits="userSpaceOnUse">
<stop stop-color="white"/>
<stop offset="1" stop-color="#4057DA"/>
</linearGradient>
<linearGradient id="paint9_linear_25_512" x1="809.234" y1="1.31689" x2="809.429" y2="282.079" gradientUnits="userSpaceOnUse">
<stop stop-color="white"/>
<stop offset="1" stop-color="#4057DA"/>
</linearGradient>
<linearGradient id="paint10_linear_25_512" x1="809.234" y1="1.31689" x2="809.429" y2="282.079" gradientUnits="userSpaceOnUse">
<stop stop-color="white"/>
<stop offset="1" stop-color="#4057DA"/>
</linearGradient>
<linearGradient id="paint11_linear_25_512" x1="809.234" y1="1.31689" x2="809.429" y2="282.079" gradientUnits="userSpaceOnUse">
<stop stop-color="white"/>
<stop offset="1" stop-color="#4057DA"/>
</linearGradient>
<linearGradient id="paint12_linear_25_512" x1="809.234" y1="1.31689" x2="809.429" y2="282.079" gradientUnits="userSpaceOnUse">
<stop stop-color="white"/>
<stop offset="1" stop-color="#4057DA"/>
</linearGradient>
<linearGradient id="paint13_linear_25_512" x1="809.234" y1="1.31689" x2="809.429" y2="282.079" gradientUnits="userSpaceOnUse">
<stop stop-color="white"/>
<stop offset="1" stop-color="#4057DA"/>
</linearGradient>
<linearGradient id="paint14_linear_25_512" x1="809.234" y1="1.31689" x2="809.429" y2="282.079" gradientUnits="userSpaceOnUse">
<stop stop-color="white"/>
<stop offset="1" stop-color="#4057DA"/>
</linearGradient>
<linearGradient id="paint15_linear_25_512" x1="809.756" y1="1.33438" x2="809.951" y2="282.096" gradientUnits="userSpaceOnUse">
<stop stop-color="white"/>
<stop offset="1" stop-color="#4057DA"/>
</linearGradient>
</defs>
</svg>
