<?xml version="1.0" encoding="UTF-8"?>
<svg id="_Слой_1" data-name="Слой 1" xmlns="http://www.w3.org/2000/svg" version="1.1" viewBox="0 0 210 90">
  <defs>
    <style>
      .cls-1, .cls-2 {
        stroke-width: 0px;
      }

      .cls-1, .cls-3 {
        fill: #000;
      }

      .cls-2 {
        fill: #ff4f12;
      }

      .cls-3, .cls-4 {
        stroke: #000;
      }

      .cls-4 {
        fill: #fff;
      }
    </style>
  </defs>
  <path class="cls-1" d="M83.9,76.3v-9.2l-3.8,9.2h-.6l-3.8-9.2v9.2h-1.4v-11h2l3.5,8.4,3.5-8.4h2v11h-1.4Z"/>
  <path class="cls-1" d="M87.9,71.2c0-3.3,2.2-5.8,5.5-5.8s5.5,2.5,5.5,5.8-2.2,5.8-5.5,5.8-5.5-2.5-5.5-5.8ZM97.5,71.2c0-2.6-1.6-4.6-4.1-4.6s-4.1,1.9-4.1,4.6,1.6,4.6,4.1,4.6,4.1-2,4.1-4.6Z"/>
  <path class="cls-1" d="M101.5,76.3v-11h5.1c2,0,3.2,1.2,3.2,2.8s-1,2.3-2,2.5c1.2.2,2.2,1.4,2.2,2.7s-1.2,3-3.3,3h-5.2ZM102.9,70.1h3.5c1.3,0,2-.8,2-1.8s-.7-1.8-2-1.8h-3.5v3.5ZM102.9,75.1h3.5c1.3,0,2.1-.7,2.1-1.9s-.7-1.9-2.1-1.9h-3.5v3.8Z"/>
  <path class="cls-1" d="M112.6,76.3v-11h1.5v11h-1.5Z"/>
  <path class="cls-1" d="M116.8,76.3v-11h1.5v9.8h5.6v1.2h-7Z"/>
  <path class="cls-1" d="M126.4,76.3v-11h7.9v1.2h-6.4v3.5h6.3v1.2h-6.3v3.8h6.4v1.2h-7.9Z"/>
  <path class="cls-1" d="M40.4,63v-25.4h11.9c5.5,0,8.5,3.7,8.5,8.2s-3,8.1-8.5,8.1h-6.5v9.1h-5.4ZM55.3,45.8c0-2.1-1.6-3.5-3.7-3.5h-5.7v7h5.7c2.1,0,3.7-1.4,3.7-3.5Z"/>
  <path class="cls-1" d="M76.9,63l-5-9.1h-4v9.1h-5.4v-25.4h11.9c5.3,0,8.5,3.5,8.5,8.2s-2.8,6.9-5.6,7.5l5.7,9.7h-6.2ZM77.4,45.8c0-2.1-1.6-3.5-3.8-3.5h-5.7v7h5.7c2.2,0,3.8-1.4,3.8-3.5Z"/>
  <path class="cls-1" d="M84.8,63v-25.4h5.1v25.4h-5.1Z"/>
  <path class="cls-1" d="M91.6,63v-25.4h9.9c7.9,0,13.4,5.1,13.4,12.7s-5.5,12.7-13.4,12.7h-9.9ZM96.9,58.2h4.6c5,0,7.9-3.6,7.9-7.9s-2.7-7.9-7.9-7.9h-4.6v15.9Z"/>
  <path class="cls-1" d="M116.6,63v-25.4h17.9v4.6h-12.5v5.5h12.2v4.6h-12.2v5.9h12.5v4.7h-17.9Z"/>
  <path class="cls-3" d="M153.6,68.3c-1.7-1.7-3.7-4.6-3.6-8.7,0-2.6,1.2-4.9,2.7-6.8,1.4-1.8,3.1-3.2,4.3-3.8,1.6-.7,6.2-3,12.5-5.9h0s0,0,0,0c1.9-1,3-1.6,3.7-2,.3-.2.5-.3.7-.4,0,0,.1,0,.2-.1,0,0,0,0,0,0,0,0,0,0,0,0,0,0,0-.1,0-.2,0,0,0-.2,0-.3,0,0-.2-.1-.2-.2,0,0-.2,0-.2,0h0s0,0,0,0h0c-.6.3-2.2.7-3.5-.2-1.3-.8-1.3-2.2-1.1-2.8h0s0,0,0,0c0-.2.3-.9.7-1.2,0,0,.2-.1.2-.2.2-.2.3-.3.5-.4.3,0,.7-.1,1.8,0,2.2.4,4.4,1.9,5.5,2.9l.7-.5c-.4-.8-1.1-2.1-2-3.1-.4-.4-.8-.8-1.3-1.2.9,0,1.8-.1,2.6-.2h0s0,0,0,0c1.1-.1,3.8.3,5.8,3.7h0c0,.1.1.2.1.2.3.1.7.2,1.1.4.2,0,.4.1.6.2.6.2,1.2.4,1.5.6,0,0,0,0,0,.2,0,.1,0,.3,0,.5,0,.1,0,.3,0,.5v.3c0,0,.2.2.2.2l6.8,4.8-.9.8-1-.7h-.1c0,0-.1,0-.1,0h-4.5l1.4.8,3,1.8-.3,1.7s0,0,0,0c0,0,0,0-.2.1-.3,0-.8.2-1.7,0-1-.2-1.5-.3-2-.3-.4,0-.8,0-1.3.2-.2,0-.3,0-.5,0h0s0,0,0,0c-.1,0-.2.1-.2.1h0s0,0-.1.1c0,0-.1.2-.2.3,0,.1-.1.2-.1.4,0,.2,0,.4.2.6,0,0,.2.1.3.1,0,0,.2,0,.2,0,.2,0,.4,0,.6,0,.5,0,1.1,0,1.8.1.6,0,1.3,0,1.8,0,.2,0,.4,0,.5,0,0,.1,0,.3-.2.5-.1.3-.3.6-.5.8-.2.2-.3.3-.4.3,0,0,0,0,0,0-.6,0-1.9,0-3.2-.4-.7-.2-1.3-.4-1.8-.7-.5-.3-.8-.7-.9-1.2-.3-1.2-.3-1.8-.3-2,0-.1,0-.2,0-.2,0,0,0,0,0,0,0-.1,0-.2,0-.4,0,0,0-.2-.1-.3,0,0-.1-.1-.2-.2-.1,0-.2,0-.3,0-.1,0-.2.1-.2.2,0,0,0,.1-.1.2-.1.2-.3.5-.4.8,0,0,0,0,0,0-.1.3-.3.6-.4.9,0,.1-.1.2-.2.3,0,0,0,0,0,0,0,0,0,0-.2,0,0,0,0,0-.1,0-.2,0-.5.1-.8.3-.4.2-.9.5-1.4,1.1,0,0,0-.2,0-.3,0-.5,0-1.1,0-1.7,0-.5-.2-1-.5-1.5-.1-1-.1-1.6,0-2,0-.4.1-.7.2-1.2,0-.1,0-.3,0-.4,0,0,0-.1,0-.2,0,0,0,0,0-.1,0,0,0,0,0-.1,0,0-.1-.2-.3-.2-.2,0-.3,0-.3,0,0,0,0,0,0,0,0,0,0,0,0,0,0,0,0,.1,0,.2,0,0,0,.1,0,.2h0c-.2.4-.5,1.1-.9,1.9-.9,1.6-2.3,3.9-4.3,5.8-2,1.1-5.1,2.8-7.7,4.8-1.3,1-2.6,2.1-3.5,3.1-.4.4-.7.8-1,1.2.6-3.6,3.3-9.7,11.8-14.8l-.4-.8c-4.2,1.6-10,4.8-13.9,9.1-2,2.2-3.5,4.6-4,7.3-.4,2.2-.2,4.5.8,6.9ZM181.8,47.3h0s0,0,0,0ZM190.9,48.7s0,0,0,0c0,0,0,0,0,0ZM176.4,55.6c4.1-1.6,7-1.3,8.2-1-.2.4-.6.9-1.1,1.4-.6.6-1.3,1.1-1.7,1.4l-9,4.6c-5.1,2.3-8,5-9.6,7.6-1,1.6-1.5,3.1-1.8,4.5-.7-2.7-.7-5-.2-6.9.6-2.4,2-4.3,3.8-5.8,3-2.6,7.1-4.1,10.1-5.2.5-.2.9-.3,1.3-.5Z"/>
  <path class="cls-4" d="M171.2,35.6h0s0,0,0,0c-.4,0-.7,0-1,.3-.3.2-.4.5-.6.7-.2.5-.3,1.1-.2,1.5h0s0,0,0,0c.2.6.7,1.3,1.7,1.6,1,.3,2.4.2,4.4-.7l-.2-.8c-1.2,0-1.9-.2-2.3-.4.1-.7,0-1.3-.4-1.7-.4-.4-1-.6-1.4-.6Z"/>
  <path class="cls-3" d="M154.6,41.9c5.4-1.9,10.2-2.3,11.6-2.8.3.3.2,2.5-11.6,6.8-7.4,2.7-9,13.3-10.4,12.4-1.1-8.1,2.2-13.6,10.4-16.5Z"/>
  <path class="cls-3" d="M171.8,69.5h0s0,0,0,0c0,0,.1-.2.4-.4.2-.2.6-.6,1.1-1,1.1-.8,2.7-1.9,5.2-3.4,4.8-2.8,7.5-6.5,8.4-8.3l1.5.4c0,3.3-1.3,6-3.2,8.1-1.9,2.2-4.3,3.7-5.9,4.5-3.7,1.6-6.6,3.3-8.6,4.8-1.1.8-2.1,1.6-2.7,2.3.3-1,.8-2.1,1.3-3.1.8-1.6,1.8-3,2.4-3.7Z"/>
  <path class="cls-3" d="M187,73.5c-2.5,1-5.1,1.5-7.3,1.8,5.6-2.3,8.9-5.9,10.7-9.7,1.8-3.9,2-8,1.6-10.9,4.4,3.4,4.3,8.6,3.6,10.9-1.4,4-4.8,6.5-8.6,8ZM200.7,61.2c-.1.2-.3.4-.4.5,0-3.2-1.4-8.6-7.1-11,.4-.6,1-1.6,1.4-2.8,1.9.3,5.5,1.8,7.3,5.5.9,1.9.7,4,0,5.7-.3.8-.8,1.6-1.2,2.2Z"/>
  <path class="cls-4" d="M186.6,43l.7.4v-.8c0-.2,0-.3-.1-.4,0-.1-.1-.2-.2-.3-.2-.2-.4-.5-.5-.7,0,0,0,0,0,0-.2-.2-.4-.4-.5-.6-.2-.2-.2-.3-.2-.4,0-.2,0-.4,0-.5,0,0,0,0,0-.1,0,0,0,0,0,0h0c0,0,0-.2,0-.3s0-.2,0-.3c0-.2-.3-.2-.4-.2-.1,0-.2,0-.3,0,0,0,0,0-.1,0l-.2.2c-.2-.1-.5-.2-.8-.3-.3,0-.5-.1-.7-.1,0,0,0-.2-.1-.3,0,0-.1-.2-.3-.3,0,0-.2,0-.4,0-.1,0-.2,0-.3.2h0s0,0,0,0c0,0-.2.1-.4.2-.2,0-.5.2-.7.3-.6.2-1.2.3-1.5.4v.9c1.1,0,2.5.6,3.9,1.2,1.4.6,2.6,1.3,3.4,1.8ZM185.5,39.6s0,0,0,0h0s-.2-.2-.2-.2l.2.2Z"/>
  <path class="cls-2" d="M155.2,34.3c-.5.2-2.8-.6-3.9-1-.2,0-.4-.2-.4-.3,0-.2.1-.7.7-.8.8-.1,3.4,1,3.7,1.2.3.2.2.5.1.7,0,0,0,0,0,0,0,0-.1.2-.4.3Z"/>
  <path class="cls-2" d="M157,30.5c-.5.2-5.3-3-6.5-3.9-.7-.5-.9-.7-.8-.8,0-.2.1-.7.7-.8.8-.1,6.5,4.3,6.8,4.5.3.2.2.5.1.7,0,0,0,0,0,0,0,0-.1.2-.4.3Z"/>
  <path class="cls-2" d="M162.1,24.8c-.5.2-3-3.2-4.3-4.6-.6-.7-1.3-1.4-1.2-1.5,0-.2,0-1.1.7-1.2.8-.1,4.7,6.2,5,6.4.3.2.2.5.1.7,0,0,0,0,0,0,0,0-.1.2-.4.3Z"/>
  <path class="cls-2" d="M159.3,27.3c-.5.2-2.1-1.5-2.1-1.5,0,0-.4-.2-.4-.3,0-.2.1-.8.7-.8s1.6,1.4,2,1.7c.3.2.2.5.1.7,0,0,0,0,0,0,0,0-.1.2-.4.3Z"/>
  <path class="cls-2" d="M164.9,22.8c-.5.2-1.1-1.2-1.1-1.2,0,0-.4-.4-.4-.5,0-.2.1-.4.8-.4s.7.9,1,1.2c.3.2.2.5.1.7,0,0,0,0,0,0,0,0-.1.2-.4.3Z"/>
  <path class="cls-2" d="M167.7,21.4c-1.1-1.3-1.4-3.6-2.1-5-.4-.8-.7-2-.6-2.1,0-.2.2-.9,1.1-.6.7.3,2.3,6.4,2.4,6.7.1.5.2.5.1.7,0,0,0,0,0,0,0,0-.7.5-.8.3Z"/>
  <path class="cls-2" d="M174.5,20c-1.1-1.3-.3-3.7-.6-5.3-.2-1,.1-2.3.2-2.4.4-.6.6-.9,1.3-.3.7.6-.2,6.8-.1,6.9.1.5.2.5.1.7,0,0,0,0,0,0-.1.3-.7.6-.9.4Z"/>
  <path class="cls-2" d="M181.7,21.1c-1.1.1.1-3.6.4-4,1.1-2.1.6-1.6,1.1-3.1.4-.6.9-.6,1.6,0,.7.6-1.2,3.8-1.2,3.8-.5,1.7-.9,2.6-1,2.8,0,0,0,0,0,0-.1.3-.6.5-.9.6Z"/>
  <path class="cls-2" d="M171.5,20.6c-.5.2-.8-.8-.8-.8,0,0-.3-1.2-.2-1.3,0-.2.1-.5.8-.5s.4,1.4.7,1.6c.3.2.2.5.1.7,0,0,0,0,0,0,0,0-.3.2-.6.3Z"/>
  <path class="cls-2" d="M178.3,20.6c-.5.2-.3-1.8-.3-1.8,0,0,0-.6,0-.7,0-.2.2-.3.9-.3s.4.8.4,1.2-.6,1.2-.7,1.3c0,0,0,0,0,0,0,0-.1.2-.4.3Z"/>
  <path class="cls-2" d="M184.8,22.9c-.5.2-.2-1.1-.2-1.1,0,0,.5-.9.6-1,.2-.2.4-.2.6-.2.8,0,.5.8.4,1.2-.2.7-1,.8-1.1.9,0,0,0,0,0,0,0,0-.1.2-.4.3Z"/>
  <path class="cls-2" d="M187.5,24.5c-1.1.1,1-2.2,1.2-2.7,1.1-2.1,1.9-1.8,3-3.7.4-.6.9-.6,1.6,0,.7.6-1.9,3-1.9,3-.7,1.1-1.4.9-2.9,3.1,0,0,0,0,0,0-.1.3-.8.2-1.1.2Z"/>
  <path class="cls-2" d="M190.5,27.5c-.5.2-.2-1.1-.2-1.1,0,0,.6-.8,1.6-1.2.5-.2.6-.2.6-.2.8,0,.7.8.3,1-1.1.5-2,1.2-2,1.3,0,0,0,0,0,0,0,0-.1.2-.4.3Z"/>
  <path class="cls-2" d="M192.9,30.2c-1.7.2.9-1.7,1.3-2,2.7-1.9,2.5-1.7,4.4-2.7,1.4-.7,1.2-.8,1.6,0,.5,1.2-2.2,2.2-2.2,2.2-1.6.6-1.6.9-4,2.2,0,0,0,0,0,0-.1.3-.8.2-1.1.2Z"/>
  <path class="cls-2" d="M194.7,34.3c-.5.4-.2-1.1-.2-1.1,0,0,1-1,3-1,0,0,.8,0,.9,0,.8,0,.7.8.3,1-1.1.5-1.8.6-2.9.8,0,0-.7,0-.7,0-.1,0-.2,0-.4.3Z"/>
  <path class="cls-2" d="M166.1,34.5c-4.5,2.6-6.9,2.9-7.6,2.8-.6-3.1,5.9-16.3,19.2-14.2,10.6,1.7,13.7,10.4,13.9,14.6l-2.6.6c0-.9-1-2-1.6-2.5-1.7-.5-2.6-1.1-2.8-1.3-1.6-1.7-2.9-2.6-3.3-2.9-3.4-1.4-9.6-.3-15.3,2.9Z"/>
  <path class="cls-1" d="M2.9,11.9h1.3v5.7h0l3.8-5.7h1.5v7.5h-1.3v-5.7h0l-3.8,5.7h-1.5v-7.5Z"/>
  <path class="cls-1" d="M12,11.9h1.3v3h3.6v-3h1.3v7.5h-1.3v-3.3h-3.6v3.3h-1.3v-7.5Z"/>
  <path class="cls-1" d="M22.7,13h-2.7v-1.1h6.7v1.1h-2.7v6.4h-1.3v-6.4Z"/>
  <path class="cls-1" d="M35.1,17c0,.3-.2.6-.3,1-.2.3-.4.6-.7.8-.3.2-.6.4-1,.6-.4.2-.8.2-1.3.2s-1,0-1.4-.2c-.4-.2-.8-.4-1.1-.7-.3-.3-.6-.8-.8-1.3-.2-.5-.3-1.1-.3-1.8s0-.9.2-1.2c.1-.4.2-.7.4-1,.2-.3.4-.5.6-.8.2-.2.5-.4.7-.5.3-.1.5-.2.8-.3.3,0,.5-.1.8-.1.5,0,1,0,1.5.2.4.2.8.4,1.1.7.3.3.6.7.7,1.2.2.5.3,1,.3,1.7v.6h-5.7c0,.4,0,.7.2,1,.1.3.2.5.4.8.2.2.4.4.7.5.3.1.6.2.9.2s.6,0,.9-.1c.2,0,.4-.2.6-.4.2-.1.3-.3.4-.5.1-.2.2-.4.3-.5h1.3ZM33.8,15.1c0-.4,0-.7-.2-1-.1-.3-.2-.5-.4-.7-.2-.2-.4-.3-.7-.4-.3-.1-.5-.2-.9-.2s-.6,0-.8.2c-.3.1-.5.3-.7.5-.2.2-.3.4-.5.7-.1.3-.2.6-.2.9h4.3Z"/>
  <path class="cls-1" d="M37.1,11.9h1.3v1h0c0-.2.2-.3.3-.5.1-.2.3-.3.5-.4.2-.1.4-.2.6-.3.2,0,.5,0,.8,0s.8,0,1.2.2.7.4,1,.7c.3.3.5.7.7,1.2.2.5.3,1,.3,1.6s0,1.4-.2,2c-.2.5-.4,1-.7,1.3-.3.3-.6.6-1.1.7-.4.2-.9.2-1.4.2s-.5,0-.7,0c-.2,0-.4-.1-.6-.3-.2-.1-.3-.2-.4-.3-.1-.1-.2-.3-.3-.4h0v3.8h-1.3v-10.4ZM38.4,15.7c0,.4,0,.8.1,1.1,0,.3.2.6.4.9.2.3.4.4.6.6.3.1.6.2.9.2s.7,0,.9-.2c.3-.1.5-.3.7-.6s.3-.5.4-.9c0-.3.1-.7.1-1.1s0-.8-.1-1.2c0-.4-.2-.7-.4-.9s-.4-.5-.7-.6c-.3-.1-.6-.2-.9-.2s-.7,0-.9.2c-.3.1-.5.3-.6.6-.2.3-.3.6-.4.9,0,.4-.1.7-.1,1.2Z"/>
  <path class="cls-1" d="M45.8,11.9h1.3v3h3.6v-3h1.3v7.5h-1.3v-3.3h-3.6v3.3h-1.3v-7.5Z"/>
  <path class="cls-1" d="M61.1,17c0,.3-.2.6-.3,1-.2.3-.4.6-.7.8-.3.2-.6.4-1,.6-.4.2-.8.2-1.3.2s-1,0-1.4-.2c-.4-.2-.8-.4-1.1-.7-.3-.3-.6-.8-.8-1.3-.2-.5-.3-1.1-.3-1.8s0-.9.2-1.2c.1-.4.2-.7.4-1,.2-.3.4-.5.6-.8.2-.2.5-.4.7-.5.3-.1.5-.2.8-.3.3,0,.5-.1.8-.1.5,0,1,0,1.5.2s.8.4,1.1.7c.3.3.6.7.7,1.2.2.5.3,1,.3,1.7v.6h-5.7c0,.4,0,.7.2,1,.1.3.2.5.4.8.2.2.4.4.7.5.3.1.6.2.9.2s.6,0,.9-.1c.2,0,.4-.2.6-.4.2-.1.3-.3.4-.5.1-.2.2-.4.3-.5h1.3ZM59.9,15.1c0-.4,0-.7-.2-1-.1-.3-.2-.5-.4-.7-.2-.2-.4-.3-.7-.4-.3-.1-.5-.2-.9-.2s-.6,0-.8.2c-.3.1-.5.3-.7.5-.2.2-.3.4-.5.7-.1.3-.2.6-.2.9h4.3Z"/>
  <path class="cls-1" d="M65.3,13h-2.7v-1.1h6.7v1.1h-2.7v6.4h-1.3v-6.4Z"/>
  <path class="cls-1" d="M70.7,14.7h3.6v1.3h-3.6v-1.3Z"/>
  <path class="cls-1" d="M76.4,11.9h1.9l2,6.1h0l2.1-6.1h1.8v7.5h-1.2v-6h0l-2,6h-1.3l-2-6h0v6h-1.2v-7.5Z"/>
  <path class="cls-1" d="M86.7,14.1c0-.5.1-.8.3-1.2.2-.3.4-.6.7-.8.3-.2.6-.3,1-.4.4,0,.8-.1,1.3-.1s.7,0,1.1.1c.4,0,.7.2.9.4.3.2.5.4.7.6.2.3.3.6.3,1v4.3c0,.1,0,.2.1.3,0,0,.2.1.3.1s.1,0,.2,0c0,0,.1,0,.2,0v.9c-.1,0-.2,0-.3,0-.1,0-.2,0-.4,0-.2,0-.4,0-.6,0-.2,0-.3,0-.4-.2-.1,0-.2-.2-.3-.3,0-.1-.1-.3-.1-.5-.2.2-.3.3-.5.5-.2.1-.4.3-.6.4-.2.1-.5.2-.8.3-.3,0-.6,0-.9,0s-.6,0-.9-.1c-.3,0-.5-.2-.8-.4-.2-.2-.4-.4-.5-.7-.1-.3-.2-.6-.2-.9s0-.7.2-1c.1-.3.3-.5.5-.7.2-.2.5-.3.7-.4.3-.1.6-.2.9-.2l2.2-.3c.2,0,.4,0,.5-.2.1-.1.2-.3.2-.6,0-.5-.2-.8-.5-1-.3-.2-.7-.3-1.3-.3s-1,.1-1.3.4c-.3.2-.5.6-.5,1.1h-1.2ZM91.5,15.6c-.1,0-.2.1-.4.2-.2,0-.3,0-.5.1-.2,0-.4,0-.6,0-.2,0-.4,0-.6,0-.2,0-.5,0-.7.1-.2,0-.4.1-.5.2-.1,0-.3.2-.3.4,0,.1-.1.3-.1.5s0,.4.1.6c0,.2.2.3.3.4.1.1.3.2.4.3s.4,0,.6,0,.3,0,.4,0c.2,0,.3,0,.5-.1.2,0,.4-.1.5-.2.2,0,.3-.2.5-.3.1-.1.2-.3.3-.5,0-.2.1-.4.1-.6v-1.2Z"/>
  <path class="cls-1" d="M95.4,11.9h4.8v1.1h-3.5v6.4h-1.3v-7.5Z"/>
  <path class="cls-1" d="M101.8,14.1c0-.5.1-.8.3-1.2.2-.3.4-.6.7-.8.3-.2.6-.3,1-.4.4,0,.8-.1,1.3-.1s.7,0,1.1.1c.4,0,.7.2.9.4.3.2.5.4.7.6.2.3.3.6.3,1v4.3c0,.1,0,.2.1.3,0,0,.2.1.3.1s.1,0,.2,0c0,0,.1,0,.2,0v.9c-.1,0-.2,0-.3,0-.1,0-.2,0-.4,0-.2,0-.4,0-.6,0-.2,0-.3,0-.4-.2-.1,0-.2-.2-.3-.3,0-.1-.1-.3-.1-.5-.2.2-.3.3-.5.5-.2.1-.4.3-.6.4-.2.1-.5.2-.8.3-.3,0-.6,0-.9,0s-.6,0-.9-.1c-.3,0-.5-.2-.8-.4-.2-.2-.4-.4-.5-.7-.1-.3-.2-.6-.2-.9s0-.7.2-1c.1-.3.3-.5.5-.7.2-.2.5-.3.7-.4.3-.1.6-.2.9-.2l2.2-.3c.2,0,.4,0,.5-.2.1-.1.2-.3.2-.6,0-.5-.2-.8-.5-1-.3-.2-.7-.3-1.3-.3s-1,.1-1.3.4c-.3.2-.5.6-.5,1.1h-1.2ZM106.6,15.6c-.1,0-.2.1-.4.2-.2,0-.3,0-.5.1-.2,0-.4,0-.6,0-.2,0-.4,0-.6,0-.2,0-.5,0-.7.1-.2,0-.4.1-.5.2-.1,0-.3.2-.3.4,0,.1-.1.3-.1.5s0,.4.1.6c0,.2.2.3.3.4.1.1.3.2.4.3s.4,0,.6,0,.3,0,.4,0c.2,0,.3,0,.5-.1.2,0,.4-.1.5-.2.2,0,.3-.2.5-.3.1-.1.2-.3.3-.5,0-.2.1-.4.1-.6v-1.2Z"/>
  <path class="cls-1" d="M112.5,15.1h.7c.2,0,.4,0,.6,0,.2,0,.4-.1.5-.2.2,0,.3-.2.4-.4.1-.1.2-.3.2-.5s0-.3-.1-.4c0-.1-.2-.3-.3-.4-.1-.1-.3-.2-.5-.3s-.4,0-.7,0-.3,0-.5,0c-.2,0-.4.1-.5.2-.2,0-.3.2-.5.4-.1.2-.2.4-.3.7h-1.2c0-.3.1-.6.2-.9.1-.3.2-.5.4-.7.2-.2.3-.3.5-.5.2-.1.4-.2.6-.3.2,0,.4-.1.7-.2.2,0,.4,0,.6,0,.3,0,.7,0,1,.1.3,0,.6.2.9.4.3.2.5.4.6.7.2.3.2.6.2.9s0,.4-.1.6c0,.2-.2.3-.3.5-.1.1-.2.2-.4.3-.1,0-.3.2-.4.2h0c.1,0,.3.1.4.2.2,0,.3.2.5.3.1.1.3.3.3.5,0,.2.1.5.1.8s0,.8-.3,1.1c-.2.3-.4.6-.7.8-.3.2-.6.3-1,.4-.4.1-.8.2-1.1.2s-.9,0-1.3-.2c-.4-.1-.7-.3-1-.5-.3-.2-.5-.5-.7-.8-.2-.3-.3-.7-.3-1h1.3c0,.3.1.5.2.7.1.2.3.3.5.4.2.1.4.2.6.2.2,0,.5,0,.7,0,.6,0,1.1-.1,1.4-.4.3-.2.5-.6.5-1s0-.3,0-.5c0-.1-.1-.2-.3-.3-.1,0-.3-.2-.5-.2-.2,0-.5,0-.8,0s-.1,0-.2,0c0,0-.2,0-.2,0,0,0-.2,0-.2,0,0,0-.1,0-.2,0v-1.1Z"/>
  <path class="cls-1" d="M118.3,11.9h1.3v5.7h0l3.8-5.7h1.5v7.5h-1.3v-5.7h0l-3.8,5.7h-1.5v-7.5Z"/>
  <path class="cls-1" d="M127.4,11.9h1.3v3h3.6v-3h1.3v7.5h-1.3v-3.3h-3.6v3.3h-1.3v-7.5Z"/>
  <path class="cls-1" d="M43.3,26.6h2.7c0-.8-.3-1.3-.6-1.7-.3-.4-.8-.6-1.5-.6s-.5,0-.8.1c-.2,0-.4.2-.5.3-.1.1-.3.3-.4.5,0,.2-.2.4-.2.5h-1.3c0-.4.2-.8.4-1.2.2-.3.5-.6.7-.8.3-.2.6-.4,1-.5.3-.1.7-.2,1-.2.6,0,1,0,1.5.3.4.2.8.5,1.1.8.3.3.5.8.7,1.2.2.5.2,1,.2,1.6s0,1.1-.2,1.6c-.1.5-.4.9-.7,1.3-.3.3-.6.6-1.1.8-.4.2-.9.3-1.5.3s-.8,0-1.1-.2c-.4-.1-.7-.3-.9-.5-.3-.2-.5-.5-.7-.8-.2-.3-.3-.7-.4-1.2h1.4c0,.2,0,.4.2.6.1.2.2.4.4.5.2.1.4.2.6.3.2,0,.4.1.7.1.4,0,.7,0,.9-.2.3-.1.5-.3.6-.6.2-.2.3-.5.4-.7,0-.3.1-.5.1-.8h-2.7v-1Z"/>
  <path class="cls-1" d="M54.5,24.4h-3v1.8c0,.9-.2,1.7-.3,2.3-.1.6-.3,1.1-.5,1.5-.2.4-.4.6-.7.8-.3.2-.6.2-1,.2s-.3,0-.4,0c0,0-.2,0-.2-.1v-1.1c.2,0,.4.1.5.1s.2,0,.3,0c0,0,.2,0,.3-.2,0,0,.2-.2.2-.4,0-.2.1-.4.2-.7,0-.3.1-.6.1-1,0-.4,0-.9,0-1.4v-2.8h5.6v7.5h-1.3v-6.4Z"/>
  <path class="cls-1" d="M64.9,28.4c0,.3-.2.6-.3,1-.2.3-.4.6-.7.8-.3.2-.6.4-1,.6-.4.2-.8.2-1.3.2s-1,0-1.4-.2c-.4-.2-.8-.4-1.1-.7-.3-.3-.6-.8-.8-1.3-.2-.5-.3-1.1-.3-1.8s0-.9.2-1.2c.1-.4.2-.7.4-1,.2-.3.4-.5.6-.8.2-.2.5-.4.7-.5.3-.1.5-.2.8-.3.3,0,.5-.1.8-.1.5,0,1,0,1.5.2.4.2.8.4,1.1.7.3.3.6.7.7,1.2.2.5.3,1,.3,1.7v.6h-5.7c0,.4,0,.7.2,1,.1.3.2.5.4.8.2.2.4.4.7.5.3.1.6.2.9.2s.6,0,.9-.1c.2,0,.4-.2.6-.4.2-.1.3-.3.4-.5.1-.2.2-.4.3-.5h1.3ZM63.6,26.5c0-.4,0-.7-.2-1-.1-.3-.2-.5-.4-.7-.2-.2-.4-.3-.7-.4-.3-.1-.5-.2-.9-.2s-.6,0-.8.2c-.3.1-.5.3-.7.5-.2.2-.3.4-.5.7-.1.3-.2.6-.2.9h4.3Z"/>
  <path class="cls-1" d="M66.9,23.3h1.3v3.6l3.9-3.6h1.7l-3.6,3.3,3.7,4.2h-1.7l-3-3.4-1,.8v2.6h-1.3v-7.5Z"/>
  <path class="cls-1" d="M77.5,24.4h-2.7v-1.1h6.7v1.1h-2.7v6.4h-1.3v-6.4Z"/>
  <path class="cls-1" d="M83.3,23.3h1.3v1h0c0-.2.2-.3.3-.5.1-.2.3-.3.5-.4.2-.1.4-.2.6-.3.2,0,.5,0,.8,0s.8,0,1.2.2c.4.2.7.4,1,.7.3.3.5.7.7,1.2.2.5.3,1,.3,1.6s0,1.4-.2,2c-.2.5-.4,1-.7,1.3-.3.3-.7.6-1.1.7s-.9.2-1.4.2-.5,0-.7,0c-.2,0-.4-.1-.6-.3-.2-.1-.3-.2-.4-.3-.1-.1-.2-.3-.3-.4h0v3.8h-1.3v-10.4ZM84.6,27.1c0,.4,0,.8.1,1.1,0,.3.2.6.4.9.2.3.4.4.6.6.3.1.6.2.9.2s.7,0,.9-.2c.3-.1.5-.3.7-.6.2-.3.3-.5.4-.9,0-.3.1-.7.1-1.1s0-.8-.1-1.2c0-.4-.2-.7-.4-.9-.2-.3-.4-.5-.7-.6-.3-.1-.6-.2-.9-.2s-.7,0-.9.2c-.3.1-.5.3-.6.6-.2.3-.3.6-.4.9,0,.4-.1.7-.1,1.2Z"/>
  <path class="cls-1" d="M97.4,27c0-.4,0-.8-.1-1.1,0-.3-.2-.6-.4-.9-.2-.3-.4-.4-.7-.6-.3-.1-.6-.2-1-.2s-.7,0-1,.2c-.3.1-.5.3-.7.6-.2.3-.3.6-.4.9,0,.3-.1.7-.1,1.1s0,.8.1,1.2c0,.3.2.6.4.9.2.3.4.4.7.6.3.1.6.2,1,.2s.7,0,1-.2c.3-.1.5-.3.7-.6.2-.3.3-.6.4-.9,0-.4.1-.7.1-1.2ZM98.7,27c0,.6,0,1.2-.2,1.7-.2.5-.4.9-.7,1.2-.3.3-.7.6-1.1.8-.4.2-.9.3-1.5.3s-1.1,0-1.5-.3c-.4-.2-.8-.5-1.1-.8-.3-.3-.5-.8-.7-1.2-.2-.5-.2-1-.2-1.7s0-1.2.2-1.6c.2-.5.4-.9.7-1.2.3-.3.7-.6,1.1-.8.4-.2.9-.3,1.5-.3s1.1,0,1.5.3c.4.2.8.4,1.1.8.3.3.5.8.7,1.2.2.5.2,1,.2,1.6Z"/>
  <path class="cls-1" d="M100.7,23.3h1.3v3h3.6v-3h1.3v7.5h-1.3v-3.3h-3.6v3.3h-1.3v-7.5Z"/>
  <path class="cls-1" d="M109.4,23.3h1.3v5.7h0l3.8-5.7h1.5v7.5h-1.3v-5.7h0l-3.8,5.7h-1.5v-7.5Z"/>
  <path class="cls-1" d="M118.4,23.3h1.3v3.6l3.9-3.6h1.7l-3.6,3.3,3.7,4.2h-1.7l-3-3.4-1,.8v2.6h-1.3v-7.5Z"/>
  <path class="cls-1" d="M127,23.3h1.3v5.7h0l3.8-5.7h1.5v7.5h-1.3v-5.7h0l-3.8,5.7h-1.5v-7.5Z"/>
</svg>