<svg width="65" height="66" viewBox="0 0 65 66" fill="none" xmlns="http://www.w3.org/2000/svg">
<g clip-path="url(#clip0_71_281)">
<path d="M28.0633 6.22095V2.15845H6.68173V64.4501H28.0633V60.3876M37.4178 25.1793H34.7451C33.2689 25.1793 32.0724 26.3914 32.0724 27.8872V28.9032C32.0724 30.1071 32.8563 31.1663 33.9967 31.5032L40.8388 33.5256C41.9792 33.8625 42.7631 34.9212 42.7631 36.125V38.7218C42.7631 40.2176 41.5666 41.4293 40.0905 41.4293H37.4178M37.4178 25.1793H40.0905C41.5666 25.1793 42.7631 26.3919 42.7631 27.8876V29.2439M37.4178 25.1793V21.1168M37.4178 41.4293H34.7451C33.2689 41.4293 32.0724 40.2168 32.0724 38.7209V37.3654M37.4178 41.4293V45.4918M17.3725 8.92928V22.4613M17.3725 22.4613C21.1983 15.214 28.7398 10.2834 37.4178 10.2834C49.9645 10.2834 60.1357 20.5902 60.1357 33.3043C60.1357 46.0183 49.9645 56.3251 37.4178 56.3251C28.7398 56.3251 21.1983 51.3946 17.3725 44.1474M17.3725 22.4613V44.1474M17.3725 57.6793V44.1474" stroke="#4057DA" stroke-width="2"/>
</g>
<defs>
<clipPath id="clip0_71_281">
<rect width="64.1447" height="65" fill="white" transform="translate(0 0.804199)"/>
</clipPath>
</defs>
</svg>
