<svg width="26" height="27" viewBox="0 0 26 27" fill="none" xmlns="http://www.w3.org/2000/svg">
<path d="M10.2916 5.11814C11.6389 5.11804 12.9579 5.50444 14.0922 6.23148C15.2264 6.95852 16.1283 7.99569 16.6908 9.21992C17.2532 10.4441 17.4527 11.804 17.2655 13.1382C17.0783 14.4724 16.5123 15.7249 15.6346 16.7471L21.749 22.8614L20.9828 23.6267L14.8676 17.5115C13.7864 18.4356 12.4508 19.0107 11.0365 19.161C9.62212 19.3114 8.19541 19.03 6.94409 18.3539C5.69278 17.6777 4.67551 16.6386 4.02617 15.3732C3.37683 14.1077 3.12586 12.6753 3.30629 11.2645C3.52404 9.56579 4.35342 8.00462 5.63919 6.87327C6.92496 5.74192 8.57898 5.11794 10.2916 5.11814ZM10.2916 6.20147C8.71138 6.20147 7.19585 6.82923 6.07845 7.94663C4.96104 9.06403 4.33329 10.5796 4.33329 12.1598C4.33329 13.7401 4.96104 15.2556 6.07845 16.373C7.19585 17.4904 8.71138 18.1181 10.2916 18.1181C11.8719 18.1181 13.3874 17.4904 14.5048 16.373C15.6222 15.2556 16.25 13.7401 16.25 12.1598C16.25 10.5796 15.6222 9.06403 14.5048 7.94663C13.3874 6.82923 11.8719 6.20147 10.2916 6.20147Z" fill="#1D2534"/>
</svg>
