<svg width="65" height="66" viewBox="0 0 65 66" fill="none" xmlns="http://www.w3.org/2000/svg">
<path d="M18.2812 19.0854L28.4375 29.2417M18.2812 19.0854L23.0208 14.3459V13.6688L19.1227 12.0446C16.3187 10.8762 13.6922 9.32047 11.3201 7.4228L8.125 4.8667H7.44792L4.0625 8.25212V8.9292L6.6186 12.1243C8.51627 14.4964 10.072 17.1229 11.2404 19.9269L12.8646 23.825H13.5417L18.2812 19.0854ZM37.1973 46.8459C44.4102 55.0527 49.4271 61.7417 49.4271 61.7417H50.1042L60.9375 50.9084V50.2313C60.9375 50.2313 54.2485 45.2144 46.0417 38.0015M47.3958 31.95C54.8746 31.95 60.9375 25.8872 60.9375 18.4084C60.9375 16.4825 60.5356 14.6504 59.8108 12.9917H58.2292L50.1042 21.1167H44.6875V15.7L52.8125 7.57503V5.99347C51.1536 5.26875 49.3217 4.8667 47.3958 4.8667C39.917 4.8667 33.8542 10.9295 33.8542 18.4084C33.8542 20.0275 34.1383 21.5804 34.6596 23.0197L29.7917 27.8875C17.6042 40.075 4.0625 50.2313 4.0625 50.2313V50.9084L14.8958 61.7417H15.5729C15.5729 61.7417 25.7292 48.2 37.9167 36.0125L42.7846 31.1446C44.2238 31.6659 45.7765 31.95 47.3958 31.95Z" stroke="#4057DA" stroke-width="2"/>
</svg>
